<svg id="gem" xmlns="http://www.w3.org/2000/svg" xmlns:xlink="http://www.w3.org/1999/xlink" viewBox="-196 114.5 1173 689" width="100%"><circle cx="859.7" cy="803.5" r="700" fill="yellow" opacity="0.5"><animate begin="0" dur="10" attributeName="cx" repeatCount="indefinite" values="390.5;859.7"/><animate begin="0" dur="10" attributeName="cy" repeatCount="indefinite" values="114.5;803.5"/></circle><path fill="#000000" d="M74,126.5L53,166.5L98,230.5z"><animate keyTimes="0;0;0.15;0.91;1" dur="10" attributeName="fill" repeatCount="indefinite" values="#373737;#373737;#3a3a3a;#000000;#000000"/></path><path fill="#000000" d="M199,120.5L252,260.5L287,142.5z"><animate keyTimes="0;0;0.04;0.86;1" dur="10" attributeName="fill" repeatCount="indefinite" values="#4e4e4e;#4e4e4e;#4f4f4f;#000000;#000000"/></path><path fill="#000000" d="M199,120.5L287,142.5L305,135.5z"><animate keyTimes="0;0;0.07;0.9;1" dur="10" attributeName="fill" repeatCount="indefinite" values="#525252;#525252;#545454;#000000;#000000"/></path><path fill="#000000" d="M199,120.5L305,135.5L341,128.5z"><animate keyTimes="0;0;0.06;0.89;1" dur="10" attributeName="fill" repeatCount="indefinite" values="#555555;#555555;#575757;#000000;#000000"/></path><path fill="#090909" d="M977,114.5L968,178.5L977,224.5z"><animate keyTimes="0;0;0.45;1;1" dur="10" attributeName="fill" repeatCount="indefinite" values="#111111;#111111;#242424;#090909;#090909"/></path><path fill="#070707" d="M977,114.5L899,156.5L918,178.5z"><animate keyTimes="0;0;0.4;1;1" dur="10" attributeName="fill" repeatCount="indefinite" values="#171717;#171717;#272727;#070707;#070707"/></path><path fill="#070707" d="M977,114.5L918,178.5L968,178.5z"><animate keyTimes="0;0;0.42;1;1" dur="10" attributeName="fill" repeatCount="indefinite" values="#141414;#141414;#252525;#070707;#070707"/></path><path fill="#040404" d="M977,114.5L878,119.5L899,156.5z"><animate keyTimes="0;0;0.37;1;1" dur="10" attributeName="fill" repeatCount="indefinite" values="#191919;#191919;#272727;#040404;#040404"/></path><path fill="#000000" d="M68,114.5L60,137.5L74,126.5z"><animate keyTimes="0;0;0.21;0.98;1" dur="10" attributeName="fill" repeatCount="indefinite" values="#363636;#363636;#3d3d3d;#000000;#000000"/></path><path fill="#000000" d="M-3,114.5L-43,248.5L53,166.5z"><animate keyTimes="0;0;0.2;0.92;1" dur="10" attributeName="fill" repeatCount="indefinite" values="#2c2c2c;#2c2c2c;#323232;#000000;#000000"/></path><path fill="#000000" d="M-3,114.5L-139,215.5L-43,248.5z"><animate keyTimes="0;0;0.23;0.9;1" dur="10" attributeName="fill" repeatCount="indefinite" values="#232323;#232323;#292929;#000000;#000000"/></path><path fill="#000000" d="M-3,114.5L-181,176.5L-139,215.5z"><animate keyTimes="0;0;0.28;0.93;1" dur="10" attributeName="fill" repeatCount="indefinite" values="#1d1d1d;#1d1d1d;#252525;#000000;#000000"/></path><path fill="#000000" d="M391,114.5L341,128.5L479,222.5z"><animate keyTimes="0;0;0.05;0.89;1" dur="10" attributeName="fill" repeatCount="indefinite" values="#5e5e5e;#5e5e5e;#636363;#000000;#000000"/></path><path fill="#000000" d="M391,114.5L479,222.5L494,141.5z"><animate keyTimes="0;0;0.09;0.93;1" dur="10" attributeName="fill" repeatCount="indefinite" values="#595959;#595959;#606060;#000000;#000000"/></path><path fill="#000000" d="M391,114.5L199,120.5L341,128.5z"><animate keyTimes="0;0;0.05;0.88;1" dur="10" attributeName="fill" repeatCount="indefinite" values="#595959;#595959;#5a5a5a;#000000;#000000"/></path><path fill="#070707" d="M736,114.5L681,184.5L817,178.5z"><animate keyTimes="0;0;0.28;1;1" dur="10" attributeName="fill" repeatCount="indefinite" values="#313131;#313131;#3e3e3e;#070707;#070707"/></path><path fill="#040404" d="M736,114.5L615,162.5L681,184.5z"><animate keyTimes="0;0;0.23;1;1" dur="10" attributeName="fill" repeatCount="indefinite" values="#3b3b3b;#3b3b3b;#464646;#040404;#040404"/></path><path fill="#000000" d="M-196,114.5L-181,176.5L-3,114.5z"><animate keyTimes="0;0;0.33;0.98;1" dur="10" attributeName="fill" repeatCount="indefinite" values="#1a1a1a;#1a1a1a;#262626;#000000;#000000"/></path><path fill="#000000" d="M-196,114.5L-196,137.5L-181,176.5z"><animate keyTimes="0;0;0.36;0.96;1" dur="10" attributeName="fill" repeatCount="indefinite" values="#111111;#111111;#1d1d1d;#000000;#000000"/></path><path fill="#050505" d="M769,114.5L842,168.5L869,128.5z"><animate keyTimes="0;0;0.32;1;1" dur="10" attributeName="fill" repeatCount="indefinite" values="#262626;#262626;#333333;#050505;#050505"/></path><path fill="#070707" d="M769,114.5L817,178.5L842,168.5z"><animate keyTimes="0;0;0.32;1;1" dur="10" attributeName="fill" repeatCount="indefinite" values="#282828;#282828;#363636;#070707;#070707"/></path><path fill="#040404" d="M769,114.5L736,114.5L817,178.5z"><animate keyTimes="0;0;0.28;1;1" dur="10" attributeName="fill" repeatCount="indefinite" values="#2e2e2e;#2e2e2e;#393939;#040404;#040404"/></path><path fill="#030303" d="M769,114.5L869,128.5L878,119.5z"><animate keyTimes="0;0;0.31;1;1" dur="10" attributeName="fill" repeatCount="indefinite" values="#242424;#242424;#303030;#030303;#030303"/></path><path fill="#020202" d="M769,114.5L878,119.5L977,114.5z"><animate keyTimes="0;0;0.33;1;1" dur="10" attributeName="fill" repeatCount="indefinite" values="#1f1f1f;#1f1f1f;#2b2b2b;#020202;#020202"/></path><path fill="#000000" d="M496,114.5L494,141.5L544,159.5z"><animate keyTimes="0;0;0.11;0.94;1" dur="10" attributeName="fill" repeatCount="indefinite" values="#535353;#535353;#585858;#000000;#000000"/></path><path fill="#000000" d="M496,114.5L544,159.5L615,162.5z"><animate keyTimes="0;0;0.14;0.97;1" dur="10" attributeName="fill" repeatCount="indefinite" values="#4d4d4d;#4d4d4d;#545454;#000000;#000000"/></path><path fill="#000000" d="M496,114.5L615,162.5L736,114.5z"><animate keyTimes="0;0;0.17;0.98;1" dur="10" attributeName="fill" repeatCount="indefinite" values="#444444;#444444;#4b4b4b;#000000;#000000"/></path><path fill="#000000" d="M496,114.5L391,114.5L494,141.5z"><animate keyTimes="0;0;0.06;0.89;1" dur="10" attributeName="fill" repeatCount="indefinite" values="#5a5a5a;#5a5a5a;#5d5d5d;#000000;#000000"/></path><path fill="#000000" d="M7,114.5L-3,114.5L53,166.5z"><animate keyTimes="0;0;0.23;0.98;1" dur="10" attributeName="fill" repeatCount="indefinite" values="#2f2f2f;#2f2f2f;#373737;#000000;#000000"/></path><path fill="#000000" d="M7,114.5L53,166.5L60,137.5z"><animate keyTimes="0;0;0.21;0.97;1" dur="10" attributeName="fill" repeatCount="indefinite" values="#323232;#323232;#393939;#000000;#000000"/></path><path fill="#000000" d="M7,114.5L60,137.5L68,114.5z"><animate keyTimes="0;0;0.23;0.99;1" dur="10" attributeName="fill" repeatCount="indefinite" values="#333333;#333333;#3b3b3b;#000000;#000000"/></path><path fill="#000000" d="M131,114.5L98,230.5L148,121.5z"><animate keyTimes="0;0;0.14;0.93;1" dur="10" attributeName="fill" repeatCount="indefinite" values="#3e3e3e;#3e3e3e;#424242;#000000;#000000"/></path><path fill="#000000" d="M131,114.5L74,126.5L98,230.5z"><animate keyTimes="0;0;0.15;0.93;1" dur="10" attributeName="fill" repeatCount="indefinite" values="#3b3b3b;#3b3b3b;#3f3f3f;#000000;#000000"/></path><path fill="#000000" d="M131,114.5L68,114.5L74,126.5z"><animate keyTimes="0;0;0.2;0.98;1" dur="10" attributeName="fill" repeatCount="indefinite" values="#3a3a3a;#3a3a3a;#414141;#000000;#000000"/></path><path fill="#000000" d="M131,114.5L148,121.5L199,120.5z"><animate keyTimes="0;0;0.15;0.96;1" dur="10" attributeName="fill" repeatCount="indefinite" values="#434343;#434343;#494949;#000000;#000000"/></path><path fill="#000000" d="M131,114.5L199,120.5L391,114.5z"><animate keyTimes="0;0;0.1;0.93;1" dur="10" attributeName="fill" repeatCount="indefinite" values="#4f4f4f;#4f4f4f;#525252;#000000;#000000"/></path><path fill="#000000" d="M199,120.5L148,121.5L98,230.5z"><animate keyTimes="0;0;0.12;0.92;1" dur="10" attributeName="fill" repeatCount="indefinite" values="#414141;#414141;#444444;#000000;#000000"/></path><path fill="#000000" d="M199,120.5L98,230.5L165,281.5z"><animate keyTimes="0;0;0.06;0.85;1" dur="10" attributeName="fill" repeatCount="indefinite" values="#404040;#404040;#414141;#000000;#000000"/></path><path fill="#050505" d="M878,119.5L869,128.5L899,156.5z"><animate keyTimes="0;0;0.35;1;1" dur="10" attributeName="fill" repeatCount="indefinite" values="#1e1e1e;#1e1e1e;#2c2c2c;#050505;#050505"/></path><path fill="#000000" d="M199,120.5L165,281.5L252,260.5z"><animate keyTimes="0;0;0.02;0.82;1" dur="10" attributeName="fill" repeatCount="indefinite" values="#464646;#464646;#464646;#000000;#000000"/></path><path fill="#000000" d="M-139,215.5L-72,257.5L-43,248.5z"><animate keyTimes="0;0;0.2;0.82;1" dur="10" attributeName="fill" repeatCount="indefinite" values="#1e1e1e;#1e1e1e;#222222;#000000;#000000"/></path><path fill="#000000" d="M74,126.5L60,137.5L53,166.5z"><animate keyTimes="0;0;0.19;0.96;1" dur="10" attributeName="fill" repeatCount="indefinite" values="#353535;#353535;#3b3b3b;#000000;#000000"/></path><path fill="#000000" d="M341,128.5L252,260.5L479,222.5z"><animate keyTimes="0;0;0.07;0.9;1" dur="10" attributeName="fill" repeatCount="indefinite" values="#575757;#575757;#595959;#000000;#000000"/></path><path fill="#070707" d="M869,128.5L842,168.5L899,156.5z"><animate keyTimes="0;0;0.36;1;1" dur="10" attributeName="fill" repeatCount="indefinite" values="#202020;#202020;#2f2f2f;#070707;#070707"/></path><path fill="#000000" d="M341,128.5L305,135.5L252,260.5z"><animate keyTimes="0;0;0;0.83;1" dur="10" attributeName="fill" repeatCount="indefinite" values="#555555;#555555;#555555;#000000;#000000"/></path><path fill="#000000" d="M53,166.5L-43,248.5L52,230.5z"><animate keyTimes="0;0;0.15;0.87;1" dur="10" attributeName="fill" repeatCount="indefinite" values="#2e2e2e;#2e2e2e;#313131;#000000;#000000"/></path><path fill="#000000" d="M-196,137.5L-196,171.5L-181,176.5z"><animate keyTimes="0;0;0.35;0.92;1" dur="10" attributeName="fill" repeatCount="indefinite" values="#111111;#111111;#1c1c1c;#000000;#000000"/></path><path fill="#000000" d="M305,135.5L287,142.5L252,260.5z"><animate keyTimes="0;0;0.01;0.83;1" dur="10" attributeName="fill" repeatCount="indefinite" values="#525252;#525252;#525252;#000000;#000000"/></path><path fill="#000000" d="M494,141.5L479,222.5L544,159.5z"><animate keyTimes="0;0;0.14;0.97;1" dur="10" attributeName="fill" repeatCount="indefinite" values="#525252;#525252;#5c5c5c;#000000;#000000"/></path><path fill="#030303" d="M544,159.5L610,215.5L615,162.5z"><animate keyTimes="0;0;0.2;1;1" dur="10" attributeName="fill" repeatCount="indefinite" values="#464646;#464646;#525252;#030303;#030303"/></path><path fill="#080808" d="M615,162.5L636,227.5L681,184.5z"><animate keyTimes="0;0;0.25;1;1" dur="10" attributeName="fill" repeatCount="indefinite" values="#3f3f3f;#3f3f3f;#4d4d4d;#080808;#080808"/></path><path fill="#080808" d="M615,162.5L610,215.5L636,227.5z"><animate keyTimes="0;0;0.24;1;1" dur="10" attributeName="fill" repeatCount="indefinite" values="#414141;#414141;#505050;#080808;#080808"/></path><path fill="#0c0c0c" d="M899,156.5L842,168.5L881,235.5z"><animate keyTimes="0;0;0.4;1;1" dur="10" attributeName="fill" repeatCount="indefinite" values="#1f1f1f;#1f1f1f;#313131;#0c0c0c;#0c0c0c"/></path><path fill="#0d0d0d" d="M899,156.5L881,235.5L918,178.5z"><animate keyTimes="0;0;0.42;1;1" dur="10" attributeName="fill" repeatCount="indefinite" values="#1b1b1b;#1b1b1b;#2e2e2e;#0d0d0d;#0d0d0d"/></path><path fill="#131313" d="M817,178.5L681,184.5L818,366.5z"><animate keyTimes="0;0;0.39;1;1" dur="10" attributeName="fill" repeatCount="indefinite" values="#2b2b2b;#2b2b2b;#424242;#131313;#131313"/></path><path fill="#030303" d="M544,159.5L479,222.5L610,215.5z"><animate keyTimes="0;0;0.19;1;1" dur="10" attributeName="fill" repeatCount="indefinite" values="#4b4b4b;#4b4b4b;#595959;#030303;#030303"/></path><path fill="#000000" d="M53,166.5L52,230.5L98,230.5z"><animate keyTimes="0;0;0.12;0.87;1" dur="10" attributeName="fill" repeatCount="indefinite" values="#343434;#343434;#373737;#000000;#000000"/></path><path fill="#0d0d0d" d="M842,168.5L817,178.5L881,235.5z"><animate keyTimes="0;0;0.39;1;1" dur="10" attributeName="fill" repeatCount="indefinite" values="#222222;#222222;#353535;#0d0d0d;#0d0d0d"/></path><path fill="#0a0a0a" d="M610,215.5L479,222.5L555,308.5z"><animate keyTimes="0;0;0.24;1;1" dur="10" attributeName="fill" repeatCount="indefinite" values="#474747;#474747;#5d5d5d;#0a0a0a;#0a0a0a"/></path><path fill="#161616" d="M681,184.5L622,276.5L818,366.5z"><animate keyTimes="0;0;0.37;1;1" dur="10" attributeName="fill" repeatCount="indefinite" values="#323232;#323232;#4c4c4c;#161616;#161616"/></path><path fill="#0c0c0c" d="M918,178.5L977,224.5L968,178.5z"><animate keyTimes="0;0;0.46;1;1" dur="10" attributeName="fill" repeatCount="indefinite" values="#131313;#131313;#282828;#0c0c0c;#0c0c0c"/></path><path fill="#000000" d="M-196,171.5L-196,230.5L-181,176.5z"><animate keyTimes="0;0;0.31;0.87;1" dur="10" attributeName="fill" repeatCount="indefinite" values="#111111;#111111;#191919;#000000;#000000"/></path><path fill="#0d0d0d" d="M681,184.5L636,227.5L622,276.5z"><animate keyTimes="0;0;0.29;1;1" dur="10" attributeName="fill" repeatCount="indefinite" values="#3c3c3c;#3c3c3c;#505050;#0d0d0d;#0d0d0d"/></path><path fill="#171717" d="M817,178.5L818,366.5L881,235.5z"><animate keyTimes="0;0;0.45;1;1" dur="10" attributeName="fill" repeatCount="indefinite" values="#212121;#212121;#3b3b3b;#171717;#171717"/></path><path fill="#000000" d="M-181,176.5L-196,230.5L-139,215.5z"><animate keyTimes="0;0;0.29;0.85;1" dur="10" attributeName="fill" repeatCount="indefinite" values="#131313;#131313;#1a1a1a;#000000;#000000"/></path><path fill="#101010" d="M918,178.5L881,235.5L977,224.5z"><animate keyTimes="0;0;0.46;1;1" dur="10" attributeName="fill" repeatCount="indefinite" values="#171717;#171717;#2d2d2d;#101010;#101010"/></path><path fill="#111111" d="M534,383.5L224,416.5L474,494.5z"><animate keyTimes="0;0;0.33;1;1" dur="10" attributeName="fill" repeatCount="indefinite" values="#373737;#373737;#4d4d4d;#111111;#111111"/></path><path fill="#212121" d="M622,276.5L779,397.5L818,366.5z"><animate keyTimes="0;0;0.47;1;1" dur="10" attributeName="fill" repeatCount="indefinite" values="#282828;#282828;#4e4e4e;#212121;#212121"/></path><path fill="#020202" d="M252,260.5L224,416.5L534,383.5z"><animate keyTimes="0;0;0.2;1;1" dur="10" attributeName="fill" repeatCount="indefinite" values="#414141;#414141;#4b4b4b;#020202;#020202"/></path><path fill="#1f1f1f" d="M881,235.5L818,366.5L879,342.5z"><animate keyTimes="0;0;0.52;1;1" dur="10" attributeName="fill" repeatCount="indefinite" values="#1c1c1c;#1c1c1c;#3d3d3d;#1f1f1f;#1f1f1f"/></path><path fill="#181818" d="M977,224.5L881,235.5L879,342.5z"><animate keyTimes="0;0;0.5;1;1" dur="10" attributeName="fill" repeatCount="indefinite" values="#171717;#171717;#333333;#181818;#181818"/></path><path fill="#040404" d="M479,222.5L252,260.5L534,383.5z"><animate keyTimes="0;0;0.19;1;1" dur="10" attributeName="fill" repeatCount="indefinite" values="#4b4b4b;#4b4b4b;#5a5a5a;#040404;#040404"/></path><path fill="#000000" d="M-139,215.5L-196,230.5L-104,340.5z"><animate keyTimes="0;0;0.22;0.77;1" dur="10" attributeName="fill" repeatCount="indefinite" values="#151515;#151515;#191919;#000000;#000000"/></path><path fill="#000000" d="M-139,215.5L-104,340.5L-72,257.5z"><animate keyTimes="0;0;0.18;0.77;1" dur="10" attributeName="fill" repeatCount="indefinite" values="#1a1a1a;#1a1a1a;#1d1d1d;#000000;#000000"/></path><path fill="#0d0d0d" d="M610,215.5L622,276.5L636,227.5z"><animate keyTimes="0;0;0.28;1;1" dur="10" attributeName="fill" repeatCount="indefinite" values="#3f3f3f;#3f3f3f;#535353;#0d0d0d;#0d0d0d"/></path><path fill="#0f0f0f" d="M610,215.5L555,308.5L622,276.5z"><animate keyTimes="0;0;0.29;1;1" dur="10" attributeName="fill" repeatCount="indefinite" values="#404040;#404040;#585858;#0f0f0f;#0f0f0f"/></path><path fill="#000000" d="M52,230.5L-43,248.5L-45,331.5z"><animate keyTimes="0;0;0.12;0.79;1" dur="10" attributeName="fill" repeatCount="indefinite" values="#272727;#272727;#282828;#000000;#000000"/></path><path fill="#1e1e1e" d="M977,224.5L879,342.5L977,394.5z"><animate keyTimes="0;0;0.58;1;1" dur="10" attributeName="fill" repeatCount="indefinite" values="#101010;#101010;#343434;#1e1e1e;#1e1e1e"/></path><path fill="#0e0e0e" d="M479,222.5L534,383.5L555,308.5z"><animate keyTimes="0;0;0.28;1;1" dur="10" attributeName="fill" repeatCount="indefinite" values="#434343;#434343;#646464;#0e0e0e;#0e0e0e"/></path><path fill="#000000" d="M52,230.5L32,415.5L159,366.5z"><animate keyTimes="0;0;0.01;0.72;1" dur="10" attributeName="fill" repeatCount="indefinite" values="#2e2e2e;#2e2e2e;#2e2e2e;#000000;#000000"/></path><path fill="#000000" d="M98,230.5L52,230.5L159,366.5z"><animate keyTimes="0;0;0.03;0.78;1" dur="10" attributeName="fill" repeatCount="indefinite" values="#353535;#353535;#353535;#000000;#000000"/></path><path fill="#000000" d="M98,230.5L159,366.5L165,281.5z"><animate keyTimes="0;0;0.01;0.76;1" dur="10" attributeName="fill" repeatCount="indefinite" values="#393939;#393939;#393939;#000000;#000000"/></path><path fill="#000000" d="M-196,230.5L-151,385.5L-104,340.5z"><animate keyTimes="0;0;0.16;0.66;1" dur="10" attributeName="fill" repeatCount="indefinite" values="#121212;#121212;#141414;#000000;#000000"/></path><path fill="#000000" d="M-196,230.5L-196,405.5L-151,385.5z"><animate keyTimes="0;0;0.16;0.59;1" dur="10" attributeName="fill" repeatCount="indefinite" values="#0d0d0d;#0d0d0d;#0f0f0f;#000000;#000000"/></path><path fill="#000000" d="M52,230.5L-45,331.5L32,415.5z"><animate keyTimes="0;0;0.05;0.71;1" dur="10" attributeName="fill" repeatCount="indefinite" values="#272727;#272727;#272727;#000000;#000000"/></path><path fill="#232323" d="M622,276.5L681,443.5L779,397.5z"><animate keyTimes="0;0;0.46;1;1" dur="10" attributeName="fill" repeatCount="indefinite" values="#2c2c2c;#2c2c2c;#555555;#232323;#232323"/></path><path fill="#000000" d="M-43,248.5L-72,257.5L-45,331.5z"><animate keyTimes="0;0;0.14;0.77;1" dur="10" attributeName="fill" repeatCount="indefinite" values="#212121;#212121;#232323;#000000;#000000"/></path><path fill="#000000" d="M252,260.5L165,281.5L159,366.5z"><animate keyTimes="0;0;0.05;0.83;1" dur="10" attributeName="fill" repeatCount="indefinite" values="#3d3d3d;#3d3d3d;#3e3e3e;#000000;#000000"/></path><path fill="#000000" d="M-72,257.5L-104,340.5L-45,331.5z"><animate keyTimes="0;0;0.12;0.71;1" dur="10" attributeName="fill" repeatCount="indefinite" values="#1c1c1c;#1c1c1c;#1e1e1e;#000000;#000000"/></path><path fill="#000000" d="M252,260.5L159,366.5L224,416.5z"><animate keyTimes="0;0;0.11;0.88;1" dur="10" attributeName="fill" repeatCount="indefinite" values="#3a3a3a;#3a3a3a;#3d3d3d;#000000;#000000"/></path><path fill="#1a1a1a" d="M622,276.5L555,308.5L681,443.5z"><animate keyTimes="0;0;0.38;1;1" dur="10" attributeName="fill" repeatCount="indefinite" values="#363636;#363636;#5c5c5c;#1a1a1a;#1a1a1a"/></path><path fill="#1d1d1d" d="M555,308.5L534,383.5L681,443.5z"><animate keyTimes="0;0;0.4;1;1" dur="10" attributeName="fill" repeatCount="indefinite" values="#353535;#353535;#626262;#1d1d1d;#1d1d1d"/></path><path fill="#000000" d="M159,366.5L213,415.5L224,416.5z"><animate keyTimes="0;0;0.15;0.9;1" dur="10" attributeName="fill" repeatCount="indefinite" values="#333333;#333333;#373737;#000000;#000000"/></path><path fill="#121212" d="M224,416.5L463,519.5L474,494.5z"><animate keyTimes="0;0;0.36;1;1" dur="10" attributeName="fill" repeatCount="indefinite" values="#313131;#313131;#474747;#121212;#121212"/></path><path fill="#262626" d="M879,342.5L818,366.5L870,389.5z"><animate keyTimes="0;0;0.56;1;1" dur="10" attributeName="fill" repeatCount="indefinite" values="#191919;#191919;#424242;#262626;#262626"/></path><path fill="#272727" d="M879,342.5L870,389.5L977,394.5z"><animate keyTimes="0;0;0.61;1;1" dur="10" attributeName="fill" repeatCount="indefinite" values="#111111;#111111;#3c3c3c;#272727;#272727"/></path><path fill="#000000" d="M-45,331.5L3,444.5L32,415.5z"><animate keyTimes="0;0;0.01;0.62;1" dur="10" attributeName="fill" repeatCount="indefinite" values="#1f1f1f;#1f1f1f;#1f1f1f;#000000;#000000"/></path><path fill="#000000" d="M-45,331.5L-68,444.5L3,444.5z"><animate keyTimes="0;0;0;0.57;1" dur="10" attributeName="fill" repeatCount="indefinite" values="#1a1a1a;#1a1a1a;#1a1a1a;#000000;#000000"/></path><path fill="#000000" d="M-45,331.5L-104,340.5L-68,444.5z"><animate keyTimes="0;0;0.06;0.61;1" dur="10" attributeName="fill" repeatCount="indefinite" values="#191919;#191919;#191919;#000000;#000000"/></path><path fill="#0f0f0f" d="M224,416.5L320,591.5L463,519.5z"><animate keyTimes="0;0;0.35;1;1" dur="10" attributeName="fill" repeatCount="indefinite" values="#2c2c2c;#2c2c2c;#3e3e3e;#0f0f0f;#0f0f0f"/></path><path fill="#2c2c2c" d="M779,397.5L681,443.5L719,455.5z"><animate keyTimes="0;0;0.54;1;1" dur="10" attributeName="fill" repeatCount="indefinite" values="#222222;#222222;#565656;#2c2c2c;#2c2c2c"/></path><path fill="#000000" d="M-104,340.5L-151,385.5L-68,444.5z"><animate keyTimes="0;0;0.06;0.56;1" dur="10" attributeName="fill" repeatCount="indefinite" values="#131313;#131313;#131313;#000000;#000000"/></path><path fill="#080808" d="M224,416.5L277,577.5L320,591.5z"><animate keyTimes="0;0;0.33;1;1" dur="10" attributeName="fill" repeatCount="indefinite" values="#272727;#272727;#353535;#080808;#080808"/></path><path fill="#2c2c2c" d="M870,389.5L977,459.5L977,394.5z"><animate keyTimes="0;0;0.67;1;1" dur="10" attributeName="fill" repeatCount="indefinite" values="#0b0b0b;#0b0b0b;#3c3c3c;#2c2c2c;#2c2c2c"/></path><path fill="#303030" d="M870,389.5L880,477.5L977,459.5z"><animate keyTimes="0;0;0.67;1;1" dur="10" attributeName="fill" repeatCount="indefinite" values="#0d0d0d;#0d0d0d;#424242;#303030;#303030"/></path><path fill="#262626" d="M534,383.5L631,499.5L681,443.5z"><animate keyTimes="0;0;0.48;1;1" dur="10" attributeName="fill" repeatCount="indefinite" values="#2c2c2c;#2c2c2c;#646464;#262626;#262626"/></path><path fill="#282828" d="M818,366.5L779,397.5L870,389.5z"><animate keyTimes="0;0;0.56;1;1" dur="10" attributeName="fill" repeatCount="indefinite" values="#1c1c1c;#1c1c1c;#474747;#282828;#282828"/></path><path fill="#000000" d="M159,366.5L32,415.5L213,415.5z"><animate keyTimes="0;0;0.11;0.82;1" dur="10" attributeName="fill" repeatCount="indefinite" values="#2e2e2e;#2e2e2e;#2f2f2f;#000000;#000000"/></path><path fill="#000000" d="M-196,459.5L-196,654.5L-173,518.5z"><animate keyTimes="0;0;0.04;0.24;1" dur="10" attributeName="fill" repeatCount="indefinite" values="#000000;#000000;#000000;#000000;#000000"/></path><path fill="#000000" d="M32,415.5L121,599.5L213,415.5z"><animate keyTimes="0;0;0.18;0.84;1" dur="10" attributeName="fill" repeatCount="indefinite" values="#242424;#242424;#282828;#000000;#000000"/></path><path fill="#000000" d="M32,415.5L66,584.5L121,599.5z"><animate keyTimes="0;0;0.2;0.79;1" dur="10" attributeName="fill" repeatCount="indefinite" values="#191919;#191919;#1d1d1d;#000000;#000000"/></path><path fill="#2e2e2e" d="M870,389.5L779,397.5L880,477.5z"><animate keyTimes="0;0;0.61;1;1" dur="10" attributeName="fill" repeatCount="indefinite" values="#161616;#161616;#484848;#2e2e2e;#2e2e2e"/></path><path fill="#000000" d="M-151,385.5L-196,459.5L-68,444.5z"><animate keyTimes="0;0;0.04;0.45;1" dur="10" attributeName="fill" repeatCount="indefinite" values="#0c0c0c;#0c0c0c;#0d0d0d;#000000;#000000"/></path><path fill="#212121" d="M534,383.5L474,494.5L571,522.5z"><animate keyTimes="0;0;0.44;1;1" dur="10" attributeName="fill" repeatCount="indefinite" values="#2e2e2e;#2e2e2e;#585858;#212121;#212121"/></path><path fill="#262626" d="M534,383.5L571,522.5L631,499.5z"><animate keyTimes="0;0;0.48;1;1" dur="10" attributeName="fill" repeatCount="indefinite" values="#2b2b2b;#2b2b2b;#5e5e5e;#262626;#262626"/></path><path fill="#000000" d="M-151,385.5L-196,405.5L-196,459.5z"><animate keyTimes="0;0;0.09;0.42;1" dur="10" attributeName="fill" repeatCount="indefinite" values="#080808;#080808;#090909;#000000;#000000"/></path><path fill="#000000" d="M-68,444.5L-18,465.5L3,444.5z"><animate keyTimes="0;0;0.05;0.59;1" dur="10" attributeName="fill" repeatCount="indefinite" values="#181818;#181818;#181818;#000000;#000000"/></path><path fill="#303030" d="M779,397.5L719,455.5L880,477.5z"><animate keyTimes="0;0;0.6;1;1" dur="10" attributeName="fill" repeatCount="indefinite" values="#1a1a1a;#1a1a1a;#4f4f4f;#303030;#303030"/></path><path fill="#000000" d="M-68,444.5L-196,459.5L-173,518.5z"><animate keyTimes="0;0;0.01;0.33;1" dur="10" attributeName="fill" repeatCount="indefinite" values="#080808;#080808;#080808;#000000;#000000"/></path><path fill="#000000" d="M32,415.5L3,444.5L66,584.5z"><animate keyTimes="0;0;0.12;0.71;1" dur="10" attributeName="fill" repeatCount="indefinite" values="#1b1b1b;#1b1b1b;#1d1d1d;#000000;#000000"/></path><path fill="#000000" d="M213,415.5L121,599.5L277,577.5z"><animate keyTimes="0;0;0.29;0.99;1" dur="10" attributeName="fill" repeatCount="indefinite" values="#232323;#232323;#2d2d2d;#000000;#000000"/></path><path fill="#000000" d="M213,415.5L277,577.5L224,416.5z"><animate keyTimes="0;0;0.25;0.99;1" dur="10" attributeName="fill" repeatCount="indefinite" values="#2d2d2d;#2d2d2d;#363636;#000000;#000000"/></path><path fill="#000000" d="M-173,518.5L-196,654.5L-165,569.5z"><animate keyTimes="0;0;0.08;0.34;1" dur="10" attributeName="fill" repeatCount="indefinite" values="#000000;#000000;#000000;#000000;#000000"/></path><path fill="#3e3e3e" d="M880,477.5L699,537.5L758,619.5z"><animate keyTimes="0;0;0.69;1;1" dur="10" attributeName="fill" repeatCount="indefinite" values="#121212;#121212;#595959;#3e3e3e;#3e3e3e"/></path><path fill="#363636" d="M977,459.5L880,477.5L977,522.5z"><animate keyTimes="0;0;0.74;1;1" dur="10" attributeName="fill" repeatCount="indefinite" values="#050505;#050505;#414141;#363636;#363636"/></path><path fill="#363636" d="M719,455.5L699,537.5L880,477.5z"><animate keyTimes="0;0;0.63;1;1" dur="10" attributeName="fill" repeatCount="indefinite" values="#191919;#191919;#565656;#363636;#363636"/></path><path fill="#000000" d="M3,444.5L-18,465.5L-22,488.5z"><animate keyTimes="0;0;0.08;0.62;1" dur="10" attributeName="fill" repeatCount="indefinite" values="#181818;#181818;#191919;#000000;#000000"/></path><path fill="#000000" d="M3,444.5L-22,488.5L-20,500.5z"><animate keyTimes="0;0;0.09;0.63;1" dur="10" attributeName="fill" repeatCount="indefinite" values="#171717;#171717;#181818;#000000;#000000"/></path><path fill="#000000" d="M3,444.5L-20,500.5L66,584.5z"><animate keyTimes="0;0;0.14;0.68;1" dur="10" attributeName="fill" repeatCount="indefinite" values="#171717;#171717;#181818;#000000;#000000"/></path><path fill="#000000" d="M-68,444.5L-72,559.5L-22,488.5z"><animate keyTimes="0;0;0.08;0.54;1" dur="10" attributeName="fill" repeatCount="indefinite" values="#111111;#111111;#111111;#000000;#000000"/></path><path fill="#000000" d="M-68,444.5L-173,518.5L-72,559.5z"><animate keyTimes="0;0;0.06;0.42;1" dur="10" attributeName="fill" repeatCount="indefinite" values="#0a0a0a;#0a0a0a;#0a0a0a;#000000;#000000"/></path><path fill="#000000" d="M-68,444.5L-22,488.5L-18,465.5z"><animate keyTimes="0;0;0.06;0.58;1" dur="10" attributeName="fill" repeatCount="indefinite" values="#151515;#151515;#161616;#000000;#000000"/></path><path fill="#313131" d="M681,443.5L699,537.5L719,455.5z"><animate keyTimes="0;0;0.57;1;1" dur="10" attributeName="fill" repeatCount="indefinite" values="#202020;#202020;#5d5d5d;#313131;#313131"/></path><path fill="#313131" d="M681,443.5L631,499.5L699,537.5z"><animate keyTimes="0;0;0.57;1;1" dur="10" attributeName="fill" repeatCount="indefinite" values="#212121;#212121;#626262;#313131;#313131"/></path><path fill="#000000" d="M-22,488.5L-72,559.5L-20,500.5z"><animate keyTimes="0;0;0.11;0.58;1" dur="10" attributeName="fill" repeatCount="indefinite" values="#111111;#111111;#121212;#000000;#000000"/></path><path fill="#232323" d="M474,494.5L463,519.5L571,522.5z"><animate keyTimes="0;0;0.47;1;1" dur="10" attributeName="fill" repeatCount="indefinite" values="#292929;#292929;#525252;#232323;#232323"/></path><path fill="#454545" d="M880,477.5L854,668.5L945,605.5z"><animate keyTimes="0;0;0.8;1;1" dur="10" attributeName="fill" repeatCount="indefinite" values="#020202;#020202;#4f4f4f;#454545;#454545"/></path><path fill="#464646" d="M880,477.5L758,619.5L854,668.5z"><animate keyTimes="0;0;0.77;1;1" dur="10" attributeName="fill" repeatCount="indefinite" values="#080808;#080808;#575757;#464646;#464646"/></path><path fill="#3d3d3d" d="M880,477.5L945,605.5L977,522.5z"><animate keyTimes="0;0;0.78;1;1" dur="10" attributeName="fill" repeatCount="indefinite" values="#020202;#020202;#464646;#3d3d3d;#3d3d3d"/></path><path fill="#1c1c1c" d="M463,519.5L320,591.5L438,623.5z"><animate keyTimes="0;0;0.47;1;1" dur="10" attributeName="fill" repeatCount="indefinite" values="#222222;#222222;#414141;#1c1c1c;#1c1c1c"/></path><path fill="#000000" d="M-173,518.5L-165,569.5L-72,559.5z"><animate keyTimes="0;0;0.07;0.27;1" dur="10" attributeName="fill" repeatCount="indefinite" values="#030303;#030303;#030303;#000000;#000000"/></path><path fill="#353535" d="M631,499.5L662,569.5L699,537.5z"><animate keyTimes="0;0;0.6;1;1" dur="10" attributeName="fill" repeatCount="indefinite" values="#1d1d1d;#1d1d1d;#636363;#353535;#353535"/></path><path fill="#000000" d="M-20,500.5L14,615.5L66,584.5z"><animate keyTimes="0;0;0.2;0.7;1" dur="10" attributeName="fill" repeatCount="indefinite" values="#111111;#111111;#141414;#000000;#000000"/></path><path fill="#444444" d="M977,522.5L945,605.5L977,671.5z"><animate keyTimes="0;0.07;0.87;1;1" dur="10" attributeName="fill" repeatCount="indefinite" values="#000000;#000000;#484848;#444444;#444444"/></path><path fill="#000000" d="M-20,500.5L-72,559.5L-33,614.5z"><animate keyTimes="0;0;0.15;0.57;1" dur="10" attributeName="fill" repeatCount="indefinite" values="#0c0c0c;#0c0c0c;#0e0e0e;#000000;#000000"/></path><path fill="#000000" d="M-20,500.5L-33,614.5L14,615.5z"><animate keyTimes="0;0;0.19;0.63;1" dur="10" attributeName="fill" repeatCount="indefinite" values="#0d0d0d;#0d0d0d;#101010;#000000;#000000"/></path><path fill="#313131" d="M631,499.5L571,522.5L662,569.5z"><animate keyTimes="0;0;0.57;1;1" dur="10" attributeName="fill" repeatCount="indefinite" values="#202020;#202020;#5e5e5e;#313131;#313131"/></path><path fill="#1a1a1a" d="M320,591.5L354,637.5L438,623.5z"><animate keyTimes="0;0;0.49;1;1" dur="10" attributeName="fill" repeatCount="indefinite" values="#1c1c1c;#1c1c1c;#3a3a3a;#1a1a1a;#1a1a1a"/></path><path fill="#000000" d="M-165,569.5L-196,654.5L-164,610.5z"><animate keyTimes="0;0;0.11;0.43;1" dur="10" attributeName="fill" repeatCount="indefinite" values="#000000;#000000;#000000;#000000;#000000"/></path><path fill="#353535" d="M571,522.5L618,636.5L662,569.5z"><animate keyTimes="0;0;0.61;1;1" dur="10" attributeName="fill" repeatCount="indefinite" values="#1b1b1b;#1b1b1b;#5a5a5a;#353535;#353535"/></path><path fill="#252525" d="M463,519.5L438,623.5L493,659.5z"><animate keyTimes="0;0;0.53;1;1" dur="10" attributeName="fill" repeatCount="indefinite" values="#1e1e1e;#1e1e1e;#464646;#252525;#252525"/></path><path fill="#292929" d="M463,519.5L525,661.5L571,522.5z"><animate keyTimes="0;0;0.54;1;1" dur="10" attributeName="fill" repeatCount="indefinite" values="#212121;#212121;#4f4f4f;#292929;#292929"/></path><path fill="#2a2a2a" d="M463,519.5L493,659.5L525,661.5z"><animate keyTimes="0;0;0.57;1;1" dur="10" attributeName="fill" repeatCount="indefinite" values="#1c1c1c;#1c1c1c;#484848;#2a2a2a;#2a2a2a"/></path><path fill="#333333" d="M571,522.5L525,661.5L618,636.5z"><animate keyTimes="0;0;0.61;1;1" dur="10" attributeName="fill" repeatCount="indefinite" values="#191919;#191919;#525252;#333333;#333333"/></path><path fill="#151515" d="M320,591.5L328,614.5L354,637.5z"><animate keyTimes="0;0;0.46;1;1" dur="10" attributeName="fill" repeatCount="indefinite" values="#1c1c1c;#1c1c1c;#363636;#151515;#151515"/></path><path fill="#000000" d="M-72,559.5L-165,569.5L-164,610.5z"><animate keyTimes="0;0.01;0.11;0.2;1" dur="10" attributeName="fill" repeatCount="indefinite" values="#000000;#000000;#010101;#000000;#000000"/></path><path fill="#3d3d3d" d="M699,537.5L662,569.5L758,619.5z"><animate keyTimes="0;0;0.67;1;1" dur="10" attributeName="fill" repeatCount="indefinite" values="#151515;#151515;#646464;#3d3d3d;#3d3d3d"/></path><path fill="#353535" d="M618,636.5L525,661.5L543,671.5z"><animate keyTimes="0;0;0.65;1;1" dur="10" attributeName="fill" repeatCount="indefinite" values="#131313;#131313;#4d4d4d;#353535;#353535"/></path><path fill="#000000" d="M277,577.5L121,599.5L118,685.5z"><animate keyTimes="0;0;0.35;0.98;1" dur="10" attributeName="fill" repeatCount="indefinite" values="#161616;#161616;#222222;#000000;#000000"/></path><path fill="#000000" d="M-72,559.5L-164,610.5L-33,614.5z"><animate keyTimes="0;0;0.15;0.4;1" dur="10" attributeName="fill" repeatCount="indefinite" values="#030303;#030303;#050505;#000000;#000000"/></path><path fill="#080808" d="M277,577.5L118,685.5L285,743.5z"><animate keyTimes="0;0;0.44;1;1" dur="10" attributeName="fill" repeatCount="indefinite" values="#121212;#121212;#252525;#080808;#080808"/></path><path fill="#3f3f3f" d="M662,569.5L618,636.5L758,619.5z"><animate keyTimes="0;0;0.69;1;1" dur="10" attributeName="fill" repeatCount="indefinite" values="#131313;#131313;#5f5f5f;#3f3f3f;#3f3f3f"/></path><path fill="#000000" d="M66,584.5L71,622.5L121,599.5z"><animate keyTimes="0;0;0.28;0.83;1" dur="10" attributeName="fill" repeatCount="indefinite" values="#121212;#121212;#191919;#000000;#000000"/></path><path fill="#000000" d="M66,584.5L14,615.5L71,622.5z"><animate keyTimes="0;0;0.26;0.76;1" dur="10" attributeName="fill" repeatCount="indefinite" values="#0f0f0f;#0f0f0f;#151515;#000000;#000000"/></path><path fill="#111111" d="M277,577.5L285,743.5L328,614.5z"><animate keyTimes="0;0;0.46;1;1" dur="10" attributeName="fill" repeatCount="indefinite" values="#171717;#171717;#2f2f2f;#111111;#111111"/></path><path fill="#101010" d="M277,577.5L328,614.5L320,591.5z"><animate keyTimes="0;0;0.42;1;1" dur="10" attributeName="fill" repeatCount="indefinite" values="#1f1f1f;#1f1f1f;#343434;#101010;#101010"/></path><path fill="#454545" d="M758,619.5L618,636.5L687,736.5z"><animate keyTimes="0;0;0.75;1;1" dur="10" attributeName="fill" repeatCount="indefinite" values="#0b0b0b;#0b0b0b;#5b5b5b;#454545;#454545"/></path><path fill="#000000" d="M-164,610.5L-11,690.5L-33,614.5z"><animate keyTimes="0;0;0.21;0.43;1" dur="10" attributeName="fill" repeatCount="indefinite" values="#010101;#010101;#040404;#000000;#000000"/></path><path fill="#000000" d="M-164,610.5L-196,681.5L-11,690.5z"><animate keyTimes="0;0;0.19;0.45;1" dur="10" attributeName="fill" repeatCount="indefinite" values="#000000;#000000;#000000;#000000;#000000"/></path><path fill="#000000" d="M-196,681.5L-196,697.5L-11,690.5z"><animate keyTimes="0;0;0.22;0.56;1" dur="10" attributeName="fill" repeatCount="indefinite" values="#000000;#000000;#000000;#000000;#000000"/></path><path fill="#000000" d="M14,615.5L55,648.5L71,622.5z"><animate keyTimes="0;0;0.28;0.76;1" dur="10" attributeName="fill" repeatCount="indefinite" values="#0c0c0c;#0c0c0c;#121212;#000000;#000000"/></path><path fill="#4c4c4c" d="M945,605.5L854,668.5L977,671.5z"><animate keyTimes="0;0.07;0.89;1;1" dur="10" attributeName="fill" repeatCount="indefinite" values="#000000;#000000;#505050;#4c4c4c;#4c4c4c"/></path><path fill="#000000" d="M121,599.5L71,622.5L118,685.5z"><animate keyTimes="0;0;0.32;0.87;1" dur="10" attributeName="fill" repeatCount="indefinite" values="#0f0f0f;#0f0f0f;#191919;#000000;#000000"/></path><path fill="#050505" d="M118,685.5L192,784.5L285,743.5z"><animate keyTimes="0;0;0.49;1;1" dur="10" attributeName="fill" repeatCount="indefinite" values="#070707;#070707;#1c1c1c;#050505;#050505"/></path><path fill="#505050" d="M758,619.5L833,702.5L854,668.5z"><animate keyTimes="0;0;0.83;1;1" dur="10" attributeName="fill" repeatCount="indefinite" values="#010101;#010101;#5e5e5e;#505050;#505050"/></path><path fill="#000000" d="M-164,610.5L-196,654.5L-196,681.5z"><animate keyTimes="0;0;0.14;0.54;1" dur="10" attributeName="fill" repeatCount="indefinite" values="#000000;#000000;#000000;#000000;#000000"/></path><path fill="#000000" d="M14,615.5L-11,690.5L5,688.5z"><animate keyTimes="0;0;0.28;0.65;1" dur="10" attributeName="fill" repeatCount="indefinite" values="#040404;#040404;#0a0a0a;#000000;#000000"/></path><path fill="#000000" d="M-33,614.5L-11,690.5L14,615.5z"><animate keyTimes="0;0;0.25;0.62;1" dur="10" attributeName="fill" repeatCount="indefinite" values="#060606;#060606;#0b0b0b;#000000;#000000"/></path><path fill="#151515" d="M328,614.5L285,743.5L354,637.5z"><animate keyTimes="0;0;0.5;1;1" dur="10" attributeName="fill" repeatCount="indefinite" values="#151515;#151515;#303030;#151515;#151515"/></path><path fill="#000000" d="M14,615.5L43,665.5L55,648.5z"><animate keyTimes="0;0;0.29;0.74;1" dur="10" attributeName="fill" repeatCount="indefinite" values="#0a0a0a;#0a0a0a;#101010;#000000;#000000"/></path><path fill="#000000" d="M14,615.5L5,688.5L43,665.5z"><animate keyTimes="0;0;0.29;0.7;1" dur="10" attributeName="fill" repeatCount="indefinite" values="#070707;#070707;#0d0d0d;#000000;#000000"/></path><path fill="#000000" d="M-11,690.5L-196,697.5L-112,803.5z"><animate keyTimes="0;0;0.28;0.62;1" dur="10" attributeName="fill" repeatCount="indefinite" values="#000000;#000000;#000000;#000000;#000000"/></path><path fill="#171717" d="M354,637.5L285,743.5L336,740.5z"><animate keyTimes="0;0;0.54;1;1" dur="10" attributeName="fill" repeatCount="indefinite" values="#0f0f0f;#0f0f0f;#2d2d2d;#171717;#171717"/></path><path fill="#212121" d="M438,623.5L354,637.5L435,759.5z"><animate keyTimes="0;0;0.57;1;1" dur="10" attributeName="fill" repeatCount="indefinite" values="#141414;#141414;#3a3a3a;#212121;#212121"/></path><path fill="#000000" d="M71,622.5L55,648.5L118,685.5z"><animate keyTimes="0;0;0.32;0.83;1" dur="10" attributeName="fill" repeatCount="indefinite" values="#0c0c0c;#0c0c0c;#151515;#000000;#000000"/></path><path fill="#4e4e4e" d="M758,619.5L687,736.5L833,702.5z"><animate keyTimes="0;0;0.82;1;1" dur="10" attributeName="fill" repeatCount="indefinite" values="#030303;#030303;#626262;#4e4e4e;#4e4e4e"/></path><path fill="#282828" d="M438,623.5L435,759.5L493,659.5z"><animate keyTimes="0;0;0.61;1;1" dur="10" attributeName="fill" repeatCount="indefinite" values="#131313;#131313;#3e3e3e;#282828;#282828"/></path><path fill="#505050" d="M854,668.5L977,716.5L977,671.5z"><animate keyTimes="0;0.11;0.94;1;1" dur="10" attributeName="fill" repeatCount="indefinite" values="#000000;#000000;#525252;#505050;#505050"/></path><path fill="#000000" d="M55,648.5L79,703.5L118,685.5z"><animate keyTimes="0;0;0.35;0.84;1" dur="10" attributeName="fill" repeatCount="indefinite" values="#090909;#090909;#131313;#000000;#000000"/></path><path fill="#1e1e1e" d="M354,637.5L336,740.5L435,759.5z"><animate keyTimes="0;0;0.58;1;1" dur="10" attributeName="fill" repeatCount="indefinite" values="#0f0f0f;#0f0f0f;#323232;#1e1e1e;#1e1e1e"/></path><path fill="#3e3e3e" d="M618,636.5L543,671.5L687,736.5z"><animate keyTimes="0;0;0.71;1;1" dur="10" attributeName="fill" repeatCount="indefinite" values="#0d0d0d;#0d0d0d;#515151;#3e3e3e;#3e3e3e"/></path><path fill="#3e3e3e" d="M543,671.5L557,800.5L687,736.5z"><animate keyTimes="0;0;0.76;1;1" dur="10" attributeName="fill" repeatCount="indefinite" values="#070707;#070707;#4b4b4b;#3e3e3e;#3e3e3e"/></path><path fill="#2c2c2c" d="M493,659.5L435,759.5L510,705.5z"><animate keyTimes="0;0;0.65;1;1" dur="10" attributeName="fill" repeatCount="indefinite" values="#0f0f0f;#0f0f0f;#3f3f3f;#2c2c2c;#2c2c2c"/></path><path fill="#000000" d="M55,648.5L43,665.5L79,703.5z"><animate keyTimes="0;0;0.33;0.78;1" dur="10" attributeName="fill" repeatCount="indefinite" values="#080808;#080808;#101010;#000000;#000000"/></path><path fill="#555555" d="M854,668.5L833,702.5L977,716.5z"><animate keyTimes="0;0.08;0.91;1;1" dur="10" attributeName="fill" repeatCount="indefinite" values="#000000;#000000;#585858;#555555;#555555"/></path><path fill="#303030" d="M493,659.5L528,682.5L525,661.5z"><animate keyTimes="0;0;0.63;1;1" dur="10" attributeName="fill" repeatCount="indefinite" values="#131313;#131313;#474747;#303030;#303030"/></path><path fill="#505050" d="M833,702.5L687,736.5L695,765.5z"><animate keyTimes="0;0.01;0.85;1;1" dur="10" attributeName="fill" repeatCount="indefinite" values="#000000;#000000;#5c5c5c;#505050;#505050"/></path><path fill="#525252" d="M833,702.5L695,765.5L707,782.5z"><animate keyTimes="0;0.03;0.87;1;1" dur="10" attributeName="fill" repeatCount="indefinite" values="#000000;#000000;#5b5b5b;#525252;#525252"/></path><path fill="#000000" d="M-11,690.5L-112,803.5L-1,715.5z"><animate keyTimes="0;0.21;0.33;0.45;1" dur="10" attributeName="fill" repeatCount="indefinite" values="#000000;#000000;#000000;#000000;#000000"/></path><path fill="#303030" d="M493,659.5L510,705.5L528,682.5z"><animate keyTimes="0;0;0.64;1;1" dur="10" attributeName="fill" repeatCount="indefinite" values="#111111;#111111;#454545;#303030;#303030"/></path><path fill="#565656" d="M833,702.5L977,757.5L977,716.5z"><animate keyTimes="0;0.14;0.97;1;1" dur="10" attributeName="fill" repeatCount="indefinite" values="#000000;#000000;#565656;#565656;#565656"/></path><path fill="#5c5c5c" d="M833,702.5L861,803.5L977,757.5z"><animate keyTimes="0;0.13;0.97;1;1" dur="10" attributeName="fill" repeatCount="indefinite" values="#000000;#000000;#5d5d5d;#5c5c5c;#5c5c5c"/></path><path fill="#323232" d="M525,661.5L528,682.5L543,671.5z"><animate keyTimes="0;0;0.65;1;1" dur="10" attributeName="fill" repeatCount="indefinite" values="#121212;#121212;#484848;#323232;#323232"/></path><path fill="#2d2d2d" d="M510,705.5L435,759.5L495,749.5z"><animate keyTimes="0;0;0.68;1;1" dur="10" attributeName="fill" repeatCount="indefinite" values="#0a0a0a;#0a0a0a;#3d3d3d;#2d2d2d;#2d2d2d"/></path><path fill="#363636" d="M543,671.5L528,682.5L557,800.5z"><animate keyTimes="0;0;0.7;1;1" dur="10" attributeName="fill" repeatCount="indefinite" values="#0c0c0c;#0c0c0c;#464646;#363636;#363636"/></path><path fill="#000000" d="M43,665.5L5,688.5L79,703.5z"><animate keyTimes="0;0;0.33;0.74;1" dur="10" attributeName="fill" repeatCount="indefinite" values="#050505;#050505;#0d0d0d;#000000;#000000"/></path><path fill="#343434" d="M528,682.5L510,705.5L557,800.5z"><animate keyTimes="0;0;0.71;1;1" dur="10" attributeName="fill" repeatCount="indefinite" values="#0a0a0a;#0a0a0a;#444444;#343434;#343434"/></path><path fill="#000000" d="M5,688.5L-1,715.5L79,703.5z"><animate keyTimes="0;0;0.34;0.7;1" dur="10" attributeName="fill" repeatCount="indefinite" values="#020202;#020202;#0a0a0a;#000000;#000000"/></path><path fill="#000000" d="M-196,697.5L-196,803.5L-112,803.5z"><animate keyTimes="0;0;0.27;0.8;1" dur="10" attributeName="fill" repeatCount="indefinite" values="#000000;#000000;#000000;#000000;#000000"/></path><path fill="#000000" d="M118,685.5L79,703.5L192,784.5z"><animate keyTimes="0;0;0.43;0.93;1" dur="10" attributeName="fill" repeatCount="indefinite" values="#060606;#060606;#151515;#000000;#000000"/></path><path fill="#333333" d="M510,705.5L495,749.5L557,800.5z"><animate keyTimes="0;0;0.72;1;1" dur="10" attributeName="fill" repeatCount="indefinite" values="#070707;#070707;#414141;#333333;#333333"/></path><path fill="#000000" d="M79,703.5L185,798.5L192,784.5z"><animate keyTimes="0;0;0.48;0.98;1" dur="10" attributeName="fill" repeatCount="indefinite" values="#020202;#020202;#141414;#000000;#000000"/></path><path fill="#5a5a5a" d="M833,702.5L707,782.5L861,803.5z"><animate keyTimes="0;0.08;0.92;1;1" dur="10" attributeName="fill" repeatCount="indefinite" values="#000000;#000000;#616161;#5a5a5a;#5a5a5a"/></path><path fill="#000000" d="M5,688.5L-11,690.5L-1,715.5z"><animate keyTimes="0;0.01;0.31;0.62;1" dur="10" attributeName="fill" repeatCount="indefinite" values="#000000;#000000;#070707;#000000;#000000"/></path><path fill="#454545" d="M687,736.5L557,800.5L695,765.5z"><animate keyTimes="0;0;0.82;1;1" dur="10" attributeName="fill" repeatCount="indefinite" values="#000000;#000000;#4e4e4e;#454545;#454545"/></path><path fill="#0b0b0b" d="M285,743.5L192,784.5L233,803.5z"><animate keyTimes="0;0;0.55;1;1" dur="10" attributeName="fill" repeatCount="indefinite" values="#030303;#030303;#1d1d1d;#0b0b0b;#0b0b0b"/></path><path fill="#000000" d="M79,703.5L-1,715.5L185,798.5z"><animate keyTimes="0;0;0.41;0.84;1" dur="10" attributeName="fill" repeatCount="indefinite" values="#010101;#010101;#0e0e0e;#000000;#000000"/></path><path fill="#212121" d="M336,740.5L391,803.5L435,759.5z"><animate keyTimes="0;0;0.65;1;1" dur="10" attributeName="fill" repeatCount="indefinite" values="#070707;#070707;#2f2f2f;#212121;#212121"/></path><path fill="#595959" d="M977,757.5L861,803.5L977,787.5z"><animate keyTimes="0;0.2;1;1;1" dur="10" attributeName="fill" repeatCount="indefinite" values="#000000;#000000;#5a5a5a;#595959;#595959"/></path><path fill="#000000" d="M-1,715.5L-112,803.5L185,798.5z"><animate keyTimes="0;0.18;0.41;0.63;1" dur="10" attributeName="fill" repeatCount="indefinite" values="#000000;#000000;#040404;#000000;#000000"/></path><path fill="#252525" d="M435,759.5L391,803.5L414,803.5z"><animate keyTimes="0;0;0.68;1;1" dur="10" attributeName="fill" repeatCount="indefinite" values="#040404;#040404;#313131;#252525;#252525"/></path><path fill="#343434" d="M495,749.5L521,803.5L557,800.5z"><animate keyTimes="0;0;0.75;1;1" dur="10" attributeName="fill" repeatCount="indefinite" values="#030303;#030303;#3e3e3e;#343434;#343434"/></path><path fill="#0f0f0f" d="M285,743.5L233,803.5L263,803.5z"><animate keyTimes="0;0;0.58;1;1" dur="10" attributeName="fill" repeatCount="indefinite" values="#030303;#030303;#1f1f1f;#0f0f0f;#0f0f0f"/></path><path fill="#141414" d="M336,740.5L285,743.5L263,803.5z"><animate keyTimes="0;0;0.58;1;1" dur="10" attributeName="fill" repeatCount="indefinite" values="#070707;#070707;#252525;#141414;#141414"/></path><path fill="#595959" d="M977,787.5L861,803.5L977,803.5z"><animate keyTimes="0;0.21;1;1;1" dur="10" attributeName="fill" repeatCount="indefinite" values="#000000;#000000;#5b5b5b;#595959;#595959"/></path><path fill="#474747" d="M695,765.5L557,800.5L707,782.5z"><animate keyTimes="0;0.02;0.84;1;1" dur="10" attributeName="fill" repeatCount="indefinite" values="#000000;#000000;#4e4e4e;#474747;#474747"/></path><path fill="#191919" d="M336,740.5L263,803.5L391,803.5z"><animate keyTimes="0;0;0.62;1;1" dur="10" attributeName="fill" repeatCount="indefinite" values="#050505;#050505;#282828;#191919;#191919"/></path><path fill="#2e2e2e" d="M495,749.5L435,759.5L510,803.5z"><animate keyTimes="0;0;0.71;1;1" dur="10" attributeName="fill" repeatCount="indefinite" values="#060606;#060606;#3a3a3a;#2e2e2e;#2e2e2e"/></path><path fill="#323232" d="M495,749.5L510,803.5L521,803.5z"><animate keyTimes="0;0;0.75;1;1" dur="10" attributeName="fill" repeatCount="indefinite" values="#030303;#030303;#3c3c3c;#323232;#323232"/></path><path fill="#2a2a2a" d="M435,759.5L414,803.5L510,803.5z"><animate keyTimes="0;0;0.71;1;1" dur="10" attributeName="fill" repeatCount="indefinite" values="#040404;#040404;#363636;#2a2a2a;#2a2a2a"/></path><path fill="#070707" d="M192,784.5L185,798.5L233,803.5z"><animate keyTimes="0;0.01;0.55;1;1" dur="10" attributeName="fill" repeatCount="indefinite" values="#000000;#000000;#171717;#070707;#070707"/></path><path fill="#4f4f4f" d="M707,782.5L557,800.5L861,803.5z"><animate keyTimes="0;0.06;0.89;1;1" dur="10" attributeName="fill" repeatCount="indefinite" values="#000000;#000000;#535353;#4f4f4f;#4f4f4f"/></path><path fill="#464646" d="M557,800.5L521,803.5L861,803.5z"><animate keyTimes="0;0.04;0.86;1;1" dur="10" attributeName="fill" repeatCount="indefinite" values="#000000;#000000;#4b4b4b;#464646;#464646"/></path><path fill="#000000" d="M185,798.5L-112,803.5L233,803.5z"><animate keyTimes="0;0.11;0.49;0.86;1" dur="10" attributeName="fill" repeatCount="indefinite" values="#000000;#000000;#0b0b0b;#000000;#000000"/></path><path d="M390.5,114.5L859.7,803.5z" stroke="red"/><circle cx="859.7" cy="803.5" fill="blue" r="5"><animate begin="0" dur="10" attributeName="cx" repeatCount="indefinite" values="390.5;859.7"/><animate begin="0" dur="10" attributeName="cy" repeatCount="indefinite" values="114.5;803.5"/></circle></svg>