<svg id="gem" xmlns="http://www.w3.org/2000/svg" xmlns:xlink="http://www.w3.org/1999/xlink" width="300" height="200"><path d="M10.9560032264109 23.52430239885357l1 2l1 -2z"><animate attributeName="fill" values="black" repeatCount="indefinite" begin="0s" dur="10s"/></path>,<path d="M87.50458333786179 20.563012351223843l1 2l1 -2z"><animate attributeName="fill" values="black" repeatCount="indefinite" begin="0s" dur="10s"/></path>,<path d="M109.8312796112586 14.004451549228653l1 2l1 -2z"><animate attributeName="fill" values="black" repeatCount="indefinite" begin="0s" dur="10s"/></path>,<path d="M174.6505859153329 16.122483812516716l1 2l1 -2z"><animate attributeName="fill" values="black" repeatCount="indefinite" begin="0s" dur="10s"/></path>,<path d="M219.299927365788 11.645367928748762l1 2l1 -2z"><animate attributeName="fill" values="black" repeatCount="indefinite" begin="0s" dur="10s"/></path>,<path d="M326.0589662094085 41.02289549606441l1 2l1 -2z"><animate attributeName="fill" values="black" repeatCount="indefinite" begin="0s" dur="10s"/></path>,<path d="M15.273590734584873 66.87726051065175l1 2l1 -2z"><animate attributeName="fill" values="black" repeatCount="indefinite" begin="0s" dur="10s"/></path>,<path d="M64.42019146714759 27.95491467837373l1 2l1 -2z"><animate attributeName="fill" values="black" repeatCount="indefinite" begin="0s" dur="10s"/></path>,<path d="M138.0966728005267 84.50427205261214l1 2l1 -2z"><animate attributeName="fill" values="black" repeatCount="indefinite" begin="0s" dur="10s"/></path>,<path d="M203.8772325972858 19.43510496367631l1 2l1 -2z"><animate attributeName="fill" values="black" repeatCount="indefinite" begin="0s" dur="10s"/></path>,<path d="M271.8955720552267 72.17454728461368l1 2l1 -2z"><animate attributeName="fill" values="black" repeatCount="indefinite" begin="0s" dur="10s"/></path>,<path d="M280.19977075071404 50.20713503743513l1 2l1 -2z"><animate attributeName="fill" values="black" repeatCount="indefinite" begin="0s" dur="10s"/></path></svg>