<svg id="gem" xmlns="http://www.w3.org/2000/svg" xmlns:xlink="http://www.w3.org/1999/xlink" viewBox="-196 114.5 1173 689" width="1173" height="689"><path d="M74,126.5L53,166.5L98,230.5z"><animate attributeName="fill" values="#242424" repeatCount="indefinite" begin="0s" dur="10s"/></path><path d="M199,120.5L252,260.5L287,142.5z"><animate attributeName="fill" values="#353535" repeatCount="indefinite" begin="0s" dur="10s"/></path><path d="M199,120.5L287,142.5L305,135.5z"><animate attributeName="fill" values="#383838" repeatCount="indefinite" begin="0s" dur="10s"/></path><path d="M199,120.5L305,135.5L341,128.5z"><animate attributeName="fill" values="#3b3b3b" repeatCount="indefinite" begin="0s" dur="10s"/></path><path d="M977,114.5L968,178.5L977,224.5z"><animate attributeName="fill" values="#212121" repeatCount="indefinite" begin="0s" dur="10s"/></path><path d="M977,114.5L899,156.5L918,178.5z"><animate attributeName="fill" values="#232323" repeatCount="indefinite" begin="0s" dur="10s"/></path><path d="M977,114.5L918,178.5L968,178.5z"><animate attributeName="fill" values="#222222" repeatCount="indefinite" begin="0s" dur="10s"/></path><path d="M977,114.5L878,119.5L899,156.5z"><animate attributeName="fill" values="#242424" repeatCount="indefinite" begin="0s" dur="10s"/></path><path d="M68,114.5L60,137.5L74,126.5z"><animate attributeName="fill" values="#242424" repeatCount="indefinite" begin="0s" dur="10s"/></path><path d="M-3,114.5L-43,248.5L53,166.5z"><animate attributeName="fill" values="#202020" repeatCount="indefinite" begin="0s" dur="10s"/></path><path d="M-3,114.5L-139,215.5L-43,248.5z"><animate attributeName="fill" values="#1e1e1e" repeatCount="indefinite" begin="0s" dur="10s"/></path><path d="M-3,114.5L-181,176.5L-139,215.5z"><animate attributeName="fill" values="#1c1c1c" repeatCount="indefinite" begin="0s" dur="10s"/></path><path d="M391,114.5L341,128.5L479,222.5z"><animate attributeName="fill" values="#616161" repeatCount="indefinite" begin="0s" dur="10s"/></path><path d="M391,114.5L479,222.5L494,141.5z"><animate attributeName="fill" values="#787878" repeatCount="indefinite" begin="0s" dur="10s"/></path><path d="M391,114.5L199,120.5L341,128.5z"><animate attributeName="fill" values="#414141" repeatCount="indefinite" begin="0s" dur="10s"/></path><path d="M736,114.5L681,184.5L817,178.5z"><animate attributeName="fill" values="#343434" repeatCount="indefinite" begin="0s" dur="10s"/></path><path d="M736,114.5L615,162.5L681,184.5z"><animate attributeName="fill" values="#414141" repeatCount="indefinite" begin="0s" dur="10s"/></path><path d="M-196,114.5L-181,176.5L-3,114.5z"><animate attributeName="fill" values="#1b1b1b" repeatCount="indefinite" begin="0s" dur="10s"/></path><path d="M-196,114.5L-196,137.5L-181,176.5z"><animate attributeName="fill" values="#1a1a1a" repeatCount="indefinite" begin="0s" dur="10s"/></path><path d="M769,114.5L842,168.5L869,128.5z"><animate attributeName="fill" values="#2b2b2b" repeatCount="indefinite" begin="0s" dur="10s"/></path><path d="M769,114.5L817,178.5L842,168.5z"><animate attributeName="fill" values="#2c2c2c" repeatCount="indefinite" begin="0s" dur="10s"/></path><path d="M769,114.5L736,114.5L817,178.5z"><animate attributeName="fill" values="#303030" repeatCount="indefinite" begin="0s" dur="10s"/></path><path d="M769,114.5L869,128.5L878,119.5z"><animate attributeName="fill" values="#292929" repeatCount="indefinite" begin="0s" dur="10s"/></path><path d="M769,114.5L878,119.5L977,114.5z"><animate attributeName="fill" values="#262626" repeatCount="indefinite" begin="0s" dur="10s"/></path><path d="M496,114.5L494,141.5L544,159.5z"><animate attributeName="fill" values="#7b7b7b" repeatCount="indefinite" begin="0s" dur="10s"/></path><path d="M496,114.5L544,159.5L615,162.5z"><animate attributeName="fill" values="#6e6e6e" repeatCount="indefinite" begin="0s" dur="10s"/></path><path d="M496,114.5L615,162.5L736,114.5z"><animate attributeName="fill" values="#525252" repeatCount="indefinite" begin="0s" dur="10s"/></path><path d="M496,114.5L391,114.5L494,141.5z"><animate attributeName="fill" values="#747474" repeatCount="indefinite" begin="0s" dur="10s"/></path><path d="M7,114.5L-3,114.5L53,166.5z"><animate attributeName="fill" values="#212121" repeatCount="indefinite" begin="0s" dur="10s"/></path><path d="M7,114.5L53,166.5L60,137.5z"><animate attributeName="fill" values="#222222" repeatCount="indefinite" begin="0s" dur="10s"/></path><path d="M7,114.5L60,137.5L68,114.5z"><animate attributeName="fill" values="#222222" repeatCount="indefinite" begin="0s" dur="10s"/></path><path d="M131,114.5L98,230.5L148,121.5z"><animate attributeName="fill" values="#282828" repeatCount="indefinite" begin="0s" dur="10s"/></path><path d="M131,114.5L74,126.5L98,230.5z"><animate attributeName="fill" values="#262626" repeatCount="indefinite" begin="0s" dur="10s"/></path><path d="M131,114.5L68,114.5L74,126.5z"><animate attributeName="fill" values="#252525" repeatCount="indefinite" begin="0s" dur="10s"/></path><path d="M131,114.5L148,121.5L199,120.5z"><animate attributeName="fill" values="#2a2a2a" repeatCount="indefinite" begin="0s" dur="10s"/></path><path d="M131,114.5L199,120.5L391,114.5z"><animate attributeName="fill" values="#343434" repeatCount="indefinite" begin="0s" dur="10s"/></path><path d="M199,120.5L148,121.5L98,230.5z"><animate attributeName="fill" values="#2a2a2a" repeatCount="indefinite" begin="0s" dur="10s"/></path><path d="M199,120.5L98,230.5L165,281.5z"><animate attributeName="fill" values="#2a2a2a" repeatCount="indefinite" begin="0s" dur="10s"/></path><path d="M878,119.5L869,128.5L899,156.5z"><animate attributeName="fill" values="#262626" repeatCount="indefinite" begin="0s" dur="10s"/></path><path d="M199,120.5L165,281.5L252,260.5z"><animate attributeName="fill" values="#2f2f2f" repeatCount="indefinite" begin="0s" dur="10s"/></path><path d="M-139,215.5L-72,257.5L-43,248.5z"><animate attributeName="fill" values="#1d1d1d" repeatCount="indefinite" begin="0s" dur="10s"/></path><path d="M74,126.5L60,137.5L53,166.5z"><animate attributeName="fill" values="#232323" repeatCount="indefinite" begin="0s" dur="10s"/></path><path d="M341,128.5L252,260.5L479,222.5z"><animate attributeName="fill" values="#4d4d4d" repeatCount="indefinite" begin="0s" dur="10s"/></path><path d="M869,128.5L842,168.5L899,156.5z"><animate attributeName="fill" values="#272727" repeatCount="indefinite" begin="0s" dur="10s"/></path><path d="M341,128.5L305,135.5L252,260.5z"><animate attributeName="fill" values="#3f3f3f" repeatCount="indefinite" begin="0s" dur="10s"/></path><path d="M53,166.5L-43,248.5L52,230.5z"><animate attributeName="fill" values="#212121" repeatCount="indefinite" begin="0s" dur="10s"/></path><path d="M-196,137.5L-196,171.5L-181,176.5z"><animate attributeName="fill" values="#1a1a1a" repeatCount="indefinite" begin="0s" dur="10s"/></path><path d="M305,135.5L287,142.5L252,260.5z"><animate attributeName="fill" values="#3b3b3b" repeatCount="indefinite" begin="0s" dur="10s"/></path><path d="M494,141.5L479,222.5L544,159.5z"><animate attributeName="fill" values="#7d7d7d" repeatCount="indefinite" begin="0s" dur="10s"/></path><path d="M544,159.5L610,215.5L615,162.5z"><animate attributeName="fill" values="#5d5d5d" repeatCount="indefinite" begin="0s" dur="10s"/></path><path d="M615,162.5L636,227.5L681,184.5z"><animate attributeName="fill" values="#494949" repeatCount="indefinite" begin="0s" dur="10s"/></path><path d="M615,162.5L610,215.5L636,227.5z"><animate attributeName="fill" values="#4f4f4f" repeatCount="indefinite" begin="0s" dur="10s"/></path><path d="M899,156.5L842,168.5L881,235.5z"><animate attributeName="fill" values="#272727" repeatCount="indefinite" begin="0s" dur="10s"/></path><path d="M899,156.5L881,235.5L918,178.5z"><animate attributeName="fill" values="#252525" repeatCount="indefinite" begin="0s" dur="10s"/></path><path d="M817,178.5L681,184.5L818,366.5z"><animate attributeName="fill" values="#2f2f2f" repeatCount="indefinite" begin="0s" dur="10s"/></path><path d="M544,159.5L479,222.5L610,215.5z"><animate attributeName="fill" values="#6c6c6c" repeatCount="indefinite" begin="0s" dur="10s"/></path><path d="M53,166.5L52,230.5L98,230.5z"><animate attributeName="fill" values="#232323" repeatCount="indefinite" begin="0s" dur="10s"/></path><path d="M842,168.5L817,178.5L881,235.5z"><animate attributeName="fill" values="#292929" repeatCount="indefinite" begin="0s" dur="10s"/></path><path d="M610,215.5L479,222.5L555,308.5z"><animate attributeName="fill" values="#5a5a5a" repeatCount="indefinite" begin="0s" dur="10s"/></path><path d="M681,184.5L622,276.5L818,366.5z"><animate attributeName="fill" values="#363636" repeatCount="indefinite" begin="0s" dur="10s"/></path><path d="M918,178.5L977,224.5L968,178.5z"><animate attributeName="fill" values="#222222" repeatCount="indefinite" begin="0s" dur="10s"/></path><path d="M-196,171.5L-196,230.5L-181,176.5z"><animate attributeName="fill" values="#1a1a1a" repeatCount="indefinite" begin="0s" dur="10s"/></path><path d="M681,184.5L636,227.5L622,276.5z"><animate attributeName="fill" values="#454545" repeatCount="indefinite" begin="0s" dur="10s"/></path><path d="M817,178.5L818,366.5L881,235.5z"><animate attributeName="fill" values="#282828" repeatCount="indefinite" begin="0s" dur="10s"/></path><path d="M-181,176.5L-196,230.5L-139,215.5z"><animate attributeName="fill" values="#1a1a1a" repeatCount="indefinite" begin="0s" dur="10s"/></path><path d="M918,178.5L881,235.5L977,224.5z"><animate attributeName="fill" values="#232323" repeatCount="indefinite" begin="0s" dur="10s"/></path><path d="M534,383.5L224,416.5L474,494.5z"><animate attributeName="fill" values="#303030" repeatCount="indefinite" begin="0s" dur="10s"/></path><path d="M622,276.5L779,397.5L818,366.5z"><animate attributeName="fill" values="#2d2d2d" repeatCount="indefinite" begin="0s" dur="10s"/></path><path d="M252,260.5L224,416.5L534,383.5z"><animate attributeName="fill" values="#353535" repeatCount="indefinite" begin="0s" dur="10s"/></path><path d="M881,235.5L818,366.5L879,342.5z"><animate attributeName="fill" values="#252525" repeatCount="indefinite" begin="0s" dur="10s"/></path><path d="M977,224.5L881,235.5L879,342.5z"><animate attributeName="fill" values="#232323" repeatCount="indefinite" begin="0s" dur="10s"/></path><path d="M479,222.5L252,260.5L534,383.5z"><animate attributeName="fill" values="#4b4b4b" repeatCount="indefinite" begin="0s" dur="10s"/></path><path d="M-139,215.5L-196,230.5L-104,340.5z"><animate attributeName="fill" values="#1b1b1b" repeatCount="indefinite" begin="0s" dur="10s"/></path><path d="M-139,215.5L-104,340.5L-72,257.5z"><animate attributeName="fill" values="#1c1c1c" repeatCount="indefinite" begin="0s" dur="10s"/></path><path d="M610,215.5L622,276.5L636,227.5z"><animate attributeName="fill" values="#4a4a4a" repeatCount="indefinite" begin="0s" dur="10s"/></path><path d="M610,215.5L555,308.5L622,276.5z"><animate attributeName="fill" values="#4b4b4b" repeatCount="indefinite" begin="0s" dur="10s"/></path><path d="M52,230.5L-43,248.5L-45,331.5z"><animate attributeName="fill" values="#1f1f1f" repeatCount="indefinite" begin="0s" dur="10s"/></path><path d="M977,224.5L879,342.5L977,394.5z"><animate attributeName="fill" values="#212121" repeatCount="indefinite" begin="0s" dur="10s"/></path><path d="M479,222.5L534,383.5L555,308.5z"><animate attributeName="fill" values="#4b4b4b" repeatCount="indefinite" begin="0s" dur="10s"/></path><path d="M52,230.5L32,415.5L159,366.5z"><animate attributeName="fill" values="#222222" repeatCount="indefinite" begin="0s" dur="10s"/></path><path d="M98,230.5L52,230.5L159,366.5z"><animate attributeName="fill" values="#252525" repeatCount="indefinite" begin="0s" dur="10s"/></path><path d="M98,230.5L159,366.5L165,281.5z"><animate attributeName="fill" values="#272727" repeatCount="indefinite" begin="0s" dur="10s"/></path><path d="M-196,230.5L-151,385.5L-104,340.5z"><animate attributeName="fill" values="#1a1a1a" repeatCount="indefinite" begin="0s" dur="10s"/></path><path d="M-196,230.5L-196,405.5L-151,385.5z"><animate attributeName="fill" values="#191919" repeatCount="indefinite" begin="0s" dur="10s"/></path><path d="M52,230.5L-45,331.5L32,415.5z"><animate attributeName="fill" values="#1f1f1f" repeatCount="indefinite" begin="0s" dur="10s"/></path><path d="M622,276.5L681,443.5L779,397.5z"><animate attributeName="fill" values="#2f2f2f" repeatCount="indefinite" begin="0s" dur="10s"/></path><path d="M-43,248.5L-72,257.5L-45,331.5z"><animate attributeName="fill" values="#1d1d1d" repeatCount="indefinite" begin="0s" dur="10s"/></path><path d="M252,260.5L165,281.5L159,366.5z"><animate attributeName="fill" values="#2b2b2b" repeatCount="indefinite" begin="0s" dur="10s"/></path><path d="M-72,257.5L-104,340.5L-45,331.5z"><animate attributeName="fill" values="#1c1c1c" repeatCount="indefinite" begin="0s" dur="10s"/></path><path d="M252,260.5L159,366.5L224,416.5z"><animate attributeName="fill" values="#2a2a2a" repeatCount="indefinite" begin="0s" dur="10s"/></path><path d="M622,276.5L555,308.5L681,443.5z"><animate attributeName="fill" values="#393939" repeatCount="indefinite" begin="0s" dur="10s"/></path><path d="M555,308.5L534,383.5L681,443.5z"><animate attributeName="fill" values="#363636" repeatCount="indefinite" begin="0s" dur="10s"/></path><path d="M159,366.5L213,415.5L224,416.5z"><animate attributeName="fill" values="#272727" repeatCount="indefinite" begin="0s" dur="10s"/></path><path d="M224,416.5L463,519.5L474,494.5z"><animate attributeName="fill" values="#2a2a2a" repeatCount="indefinite" begin="0s" dur="10s"/></path><path d="M879,342.5L818,366.5L870,389.5z"><animate attributeName="fill" values="#242424" repeatCount="indefinite" begin="0s" dur="10s"/></path><path d="M879,342.5L870,389.5L977,394.5z"><animate attributeName="fill" values="#212121" repeatCount="indefinite" begin="0s" dur="10s"/></path><path d="M-45,331.5L3,444.5L32,415.5z"><animate attributeName="fill" values="#1e1e1e" repeatCount="indefinite" begin="0s" dur="10s"/></path><path d="M-45,331.5L-68,444.5L3,444.5z"><animate attributeName="fill" values="#1c1c1c" repeatCount="indefinite" begin="0s" dur="10s"/></path><path d="M-45,331.5L-104,340.5L-68,444.5z"><animate attributeName="fill" values="#1c1c1c" repeatCount="indefinite" begin="0s" dur="10s"/></path><path d="M224,416.5L320,591.5L463,519.5z"><animate attributeName="fill" values="#262626" repeatCount="indefinite" begin="0s" dur="10s"/></path><path d="M779,397.5L681,443.5L719,455.5z"><animate attributeName="fill" values="#282828" repeatCount="indefinite" begin="0s" dur="10s"/></path><path d="M-104,340.5L-151,385.5L-68,444.5z"><animate attributeName="fill" values="#1b1b1b" repeatCount="indefinite" begin="0s" dur="10s"/></path><path d="M224,416.5L277,577.5L320,591.5z"><animate attributeName="fill" values="#232323" repeatCount="indefinite" begin="0s" dur="10s"/></path><path d="M870,389.5L977,459.5L977,394.5z"><animate attributeName="fill" values="#1f1f1f" repeatCount="indefinite" begin="0s" dur="10s"/></path><path d="M870,389.5L880,477.5L977,459.5z"><animate attributeName="fill" values="#202020" repeatCount="indefinite" begin="0s" dur="10s"/></path><path d="M534,383.5L631,499.5L681,443.5z"><animate attributeName="fill" values="#2d2d2d" repeatCount="indefinite" begin="0s" dur="10s"/></path><path d="M818,366.5L779,397.5L870,389.5z"><animate attributeName="fill" values="#252525" repeatCount="indefinite" begin="0s" dur="10s"/></path><path d="M159,366.5L32,415.5L213,415.5z"><animate attributeName="fill" values="#232323" repeatCount="indefinite" begin="0s" dur="10s"/></path><path d="M-196,459.5L-196,654.5L-173,518.5z"><animate attributeName="fill" values="#181818" repeatCount="indefinite" begin="0s" dur="10s"/></path><path d="M32,415.5L121,599.5L213,415.5z"><animate attributeName="fill" values="#202020" repeatCount="indefinite" begin="0s" dur="10s"/></path><path d="M32,415.5L66,584.5L121,599.5z"><animate attributeName="fill" values="#1d1d1d" repeatCount="indefinite" begin="0s" dur="10s"/></path><path d="M870,389.5L779,397.5L880,477.5z"><animate attributeName="fill" values="#232323" repeatCount="indefinite" begin="0s" dur="10s"/></path><path d="M-151,385.5L-196,459.5L-68,444.5z"><animate attributeName="fill" values="#1a1a1a" repeatCount="indefinite" begin="0s" dur="10s"/></path><path d="M534,383.5L474,494.5L571,522.5z"><animate attributeName="fill" values="#2d2d2d" repeatCount="indefinite" begin="0s" dur="10s"/></path><path d="M534,383.5L571,522.5L631,499.5z"><animate attributeName="fill" values="#2c2c2c" repeatCount="indefinite" begin="0s" dur="10s"/></path><path d="M-151,385.5L-196,405.5L-196,459.5z"><animate attributeName="fill" values="#191919" repeatCount="indefinite" begin="0s" dur="10s"/></path><path d="M-68,444.5L-18,465.5L3,444.5z"><animate attributeName="fill" values="#1c1c1c" repeatCount="indefinite" begin="0s" dur="10s"/></path><path d="M779,397.5L719,455.5L880,477.5z"><animate attributeName="fill" values="#242424" repeatCount="indefinite" begin="0s" dur="10s"/></path><path d="M-68,444.5L-196,459.5L-173,518.5z"><animate attributeName="fill" values="#191919" repeatCount="indefinite" begin="0s" dur="10s"/></path><path d="M32,415.5L3,444.5L66,584.5z"><animate attributeName="fill" values="#1d1d1d" repeatCount="indefinite" begin="0s" dur="10s"/></path><path d="M213,415.5L121,599.5L277,577.5z"><animate attributeName="fill" values="#212121" repeatCount="indefinite" begin="0s" dur="10s"/></path><path d="M213,415.5L277,577.5L224,416.5z"><animate attributeName="fill" values="#252525" repeatCount="indefinite" begin="0s" dur="10s"/></path><path d="M-173,518.5L-196,654.5L-165,569.5z"><animate attributeName="fill" values="#171717" repeatCount="indefinite" begin="0s" dur="10s"/></path><path d="M880,477.5L699,537.5L758,619.5z"><animate attributeName="fill" values="#212121" repeatCount="indefinite" begin="0s" dur="10s"/></path><path d="M977,459.5L880,477.5L977,522.5z"><animate attributeName="fill" values="#1d1d1d" repeatCount="indefinite" begin="0s" dur="10s"/></path><path d="M719,455.5L699,537.5L880,477.5z"><animate attributeName="fill" values="#232323" repeatCount="indefinite" begin="0s" dur="10s"/></path><path d="M3,444.5L-18,465.5L-22,488.5z"><animate attributeName="fill" values="#1c1c1c" repeatCount="indefinite" begin="0s" dur="10s"/></path><path d="M3,444.5L-22,488.5L-20,500.5z"><animate attributeName="fill" values="#1c1c1c" repeatCount="indefinite" begin="0s" dur="10s"/></path><path d="M3,444.5L-20,500.5L66,584.5z"><animate attributeName="fill" values="#1c1c1c" repeatCount="indefinite" begin="0s" dur="10s"/></path><path d="M-68,444.5L-72,559.5L-22,488.5z"><animate attributeName="fill" values="#1b1b1b" repeatCount="indefinite" begin="0s" dur="10s"/></path><path d="M-68,444.5L-173,518.5L-72,559.5z"><animate attributeName="fill" values="#191919" repeatCount="indefinite" begin="0s" dur="10s"/></path><path d="M-68,444.5L-22,488.5L-18,465.5z"><animate attributeName="fill" values="#1c1c1c" repeatCount="indefinite" begin="0s" dur="10s"/></path><path d="M681,443.5L699,537.5L719,455.5z"><animate attributeName="fill" values="#272727" repeatCount="indefinite" begin="0s" dur="10s"/></path><path d="M681,443.5L631,499.5L699,537.5z"><animate attributeName="fill" values="#272727" repeatCount="indefinite" begin="0s" dur="10s"/></path><path d="M-22,488.5L-72,559.5L-20,500.5z"><animate attributeName="fill" values="#1b1b1b" repeatCount="indefinite" begin="0s" dur="10s"/></path><path d="M474,494.5L463,519.5L571,522.5z"><animate attributeName="fill" values="#292929" repeatCount="indefinite" begin="0s" dur="10s"/></path><path d="M880,477.5L854,668.5L945,605.5z"><animate attributeName="fill" values="#1d1d1d" repeatCount="indefinite" begin="0s" dur="10s"/></path><path d="M880,477.5L758,619.5L854,668.5z"><animate attributeName="fill" values="#1e1e1e" repeatCount="indefinite" begin="0s" dur="10s"/></path><path d="M880,477.5L945,605.5L977,522.5z"><animate attributeName="fill" values="#1d1d1d" repeatCount="indefinite" begin="0s" dur="10s"/></path><path d="M463,519.5L320,591.5L438,623.5z"><animate attributeName="fill" values="#232323" repeatCount="indefinite" begin="0s" dur="10s"/></path><path d="M-173,518.5L-165,569.5L-72,559.5z"><animate attributeName="fill" values="#181818" repeatCount="indefinite" begin="0s" dur="10s"/></path><path d="M631,499.5L662,569.5L699,537.5z"><animate attributeName="fill" values="#242424" repeatCount="indefinite" begin="0s" dur="10s"/></path><path d="M-20,500.5L14,615.5L66,584.5z"><animate attributeName="fill" values="#1b1b1b" repeatCount="indefinite" begin="0s" dur="10s"/></path><path d="M977,522.5L945,605.5L977,671.5z"><animate attributeName="fill" values="#1b1b1b" repeatCount="indefinite" begin="0s" dur="10s"/></path><path d="M-20,500.5L-72,559.5L-33,614.5z"><animate attributeName="fill" values="#1a1a1a" repeatCount="indefinite" begin="0s" dur="10s"/></path><path d="M-20,500.5L-33,614.5L14,615.5z"><animate attributeName="fill" values="#1a1a1a" repeatCount="indefinite" begin="0s" dur="10s"/></path><path d="M631,499.5L571,522.5L662,569.5z"><animate attributeName="fill" values="#262626" repeatCount="indefinite" begin="0s" dur="10s"/></path><path d="M320,591.5L354,637.5L438,623.5z"><animate attributeName="fill" values="#212121" repeatCount="indefinite" begin="0s" dur="10s"/></path><path d="M-165,569.5L-196,654.5L-164,610.5z"><animate attributeName="fill" values="#171717" repeatCount="indefinite" begin="0s" dur="10s"/></path><path d="M571,522.5L618,636.5L662,569.5z"><animate attributeName="fill" values="#232323" repeatCount="indefinite" begin="0s" dur="10s"/></path><path d="M463,519.5L438,623.5L493,659.5z"><animate attributeName="fill" values="#232323" repeatCount="indefinite" begin="0s" dur="10s"/></path><path d="M463,519.5L525,661.5L571,522.5z"><animate attributeName="fill" values="#252525" repeatCount="indefinite" begin="0s" dur="10s"/></path><path d="M463,519.5L493,659.5L525,661.5z"><animate attributeName="fill" values="#222222" repeatCount="indefinite" begin="0s" dur="10s"/></path><path d="M571,522.5L525,661.5L618,636.5z"><animate attributeName="fill" values="#222222" repeatCount="indefinite" begin="0s" dur="10s"/></path><path d="M320,591.5L328,614.5L354,637.5z"><animate attributeName="fill" values="#212121" repeatCount="indefinite" begin="0s" dur="10s"/></path><path d="M-72,559.5L-165,569.5L-164,610.5z"><animate attributeName="fill" values="#181818" repeatCount="indefinite" begin="0s" dur="10s"/></path><path d="M699,537.5L662,569.5L758,619.5z"><animate attributeName="fill" values="#212121" repeatCount="indefinite" begin="0s" dur="10s"/></path><path d="M618,636.5L525,661.5L543,671.5z"><animate attributeName="fill" values="#202020" repeatCount="indefinite" begin="0s" dur="10s"/></path><path d="M277,577.5L121,599.5L118,685.5z"><animate attributeName="fill" values="#1d1d1d" repeatCount="indefinite" begin="0s" dur="10s"/></path><path d="M-72,559.5L-164,610.5L-33,614.5z"><animate attributeName="fill" values="#191919" repeatCount="indefinite" begin="0s" dur="10s"/></path><path d="M277,577.5L118,685.5L285,743.5z"><animate attributeName="fill" values="#1d1d1d" repeatCount="indefinite" begin="0s" dur="10s"/></path><path d="M662,569.5L618,636.5L758,619.5z"><animate attributeName="fill" values="#202020" repeatCount="indefinite" begin="0s" dur="10s"/></path><path d="M66,584.5L71,622.5L121,599.5z"><animate attributeName="fill" values="#1c1c1c" repeatCount="indefinite" begin="0s" dur="10s"/></path><path d="M66,584.5L14,615.5L71,622.5z"><animate attributeName="fill" values="#1b1b1b" repeatCount="indefinite" begin="0s" dur="10s"/></path><path d="M277,577.5L285,743.5L328,614.5z"><animate attributeName="fill" values="#1f1f1f" repeatCount="indefinite" begin="0s" dur="10s"/></path><path d="M277,577.5L328,614.5L320,591.5z"><animate attributeName="fill" values="#212121" repeatCount="indefinite" begin="0s" dur="10s"/></path><path d="M758,619.5L618,636.5L687,736.5z"><animate attributeName="fill" values="#1e1e1e" repeatCount="indefinite" begin="0s" dur="10s"/></path><path d="M-164,610.5L-11,690.5L-33,614.5z"><animate attributeName="fill" values="#181818" repeatCount="indefinite" begin="0s" dur="10s"/></path><path d="M-164,610.5L-196,681.5L-11,690.5z"><animate attributeName="fill" values="#171717" repeatCount="indefinite" begin="0s" dur="10s"/></path><path d="M-196,681.5L-196,697.5L-11,690.5z"><animate attributeName="fill" values="#171717" repeatCount="indefinite" begin="0s" dur="10s"/></path><path d="M14,615.5L55,648.5L71,622.5z"><animate attributeName="fill" values="#1b1b1b" repeatCount="indefinite" begin="0s" dur="10s"/></path><path d="M945,605.5L854,668.5L977,671.5z"><animate attributeName="fill" values="#1a1a1a" repeatCount="indefinite" begin="0s" dur="10s"/></path><path d="M121,599.5L71,622.5L118,685.5z"><animate attributeName="fill" values="#1b1b1b" repeatCount="indefinite" begin="0s" dur="10s"/></path><path d="M118,685.5L192,784.5L285,743.5z"><animate attributeName="fill" values="#1b1b1b" repeatCount="indefinite" begin="0s" dur="10s"/></path><path d="M758,619.5L833,702.5L854,668.5z"><animate attributeName="fill" values="#1c1c1c" repeatCount="indefinite" begin="0s" dur="10s"/></path><path d="M-164,610.5L-196,654.5L-196,681.5z"><animate attributeName="fill" values="#171717" repeatCount="indefinite" begin="0s" dur="10s"/></path><path d="M14,615.5L-11,690.5L5,688.5z"><animate attributeName="fill" values="#191919" repeatCount="indefinite" begin="0s" dur="10s"/></path><path d="M-33,614.5L-11,690.5L14,615.5z"><animate attributeName="fill" values="#191919" repeatCount="indefinite" begin="0s" dur="10s"/></path><path d="M328,614.5L285,743.5L354,637.5z"><animate attributeName="fill" values="#1e1e1e" repeatCount="indefinite" begin="0s" dur="10s"/></path><path d="M14,615.5L43,665.5L55,648.5z"><animate attributeName="fill" values="#1a1a1a" repeatCount="indefinite" begin="0s" dur="10s"/></path><path d="M14,615.5L5,688.5L43,665.5z"><animate attributeName="fill" values="#1a1a1a" repeatCount="indefinite" begin="0s" dur="10s"/></path><path d="M-11,690.5L-196,697.5L-112,803.5z"><animate attributeName="fill" values="#171717" repeatCount="indefinite" begin="0s" dur="10s"/></path><path d="M354,637.5L285,743.5L336,740.5z"><animate attributeName="fill" values="#1d1d1d" repeatCount="indefinite" begin="0s" dur="10s"/></path><path d="M438,623.5L354,637.5L435,759.5z"><animate attributeName="fill" values="#1f1f1f" repeatCount="indefinite" begin="0s" dur="10s"/></path><path d="M71,622.5L55,648.5L118,685.5z"><animate attributeName="fill" values="#1b1b1b" repeatCount="indefinite" begin="0s" dur="10s"/></path><path d="M758,619.5L687,736.5L833,702.5z"><animate attributeName="fill" values="#1c1c1c" repeatCount="indefinite" begin="0s" dur="10s"/></path><path d="M438,623.5L435,759.5L493,659.5z"><animate attributeName="fill" values="#1f1f1f" repeatCount="indefinite" begin="0s" dur="10s"/></path><path d="M854,668.5L977,716.5L977,671.5z"><animate attributeName="fill" values="#1a1a1a" repeatCount="indefinite" begin="0s" dur="10s"/></path><path d="M55,648.5L79,703.5L118,685.5z"><animate attributeName="fill" values="#1a1a1a" repeatCount="indefinite" begin="0s" dur="10s"/></path><path d="M354,637.5L336,740.5L435,759.5z"><animate attributeName="fill" values="#1d1d1d" repeatCount="indefinite" begin="0s" dur="10s"/></path><path d="M618,636.5L543,671.5L687,736.5z"><animate attributeName="fill" values="#1e1e1e" repeatCount="indefinite" begin="0s" dur="10s"/></path><path d="M543,671.5L557,800.5L687,736.5z"><animate attributeName="fill" values="#1c1c1c" repeatCount="indefinite" begin="0s" dur="10s"/></path><path d="M493,659.5L435,759.5L510,705.5z"><animate attributeName="fill" values="#1e1e1e" repeatCount="indefinite" begin="0s" dur="10s"/></path><path d="M55,648.5L43,665.5L79,703.5z"><animate attributeName="fill" values="#1a1a1a" repeatCount="indefinite" begin="0s" dur="10s"/></path><path d="M854,668.5L833,702.5L977,716.5z"><animate attributeName="fill" values="#1a1a1a" repeatCount="indefinite" begin="0s" dur="10s"/></path><path d="M493,659.5L528,682.5L525,661.5z"><animate attributeName="fill" values="#1f1f1f" repeatCount="indefinite" begin="0s" dur="10s"/></path><path d="M833,702.5L687,736.5L695,765.5z"><animate attributeName="fill" values="#1b1b1b" repeatCount="indefinite" begin="0s" dur="10s"/></path><path d="M833,702.5L695,765.5L707,782.5z"><animate attributeName="fill" values="#1b1b1b" repeatCount="indefinite" begin="0s" dur="10s"/></path><path d="M-11,690.5L-112,803.5L-1,715.5z"><animate attributeName="fill" values="#171717" repeatCount="indefinite" begin="0s" dur="10s"/></path><path d="M493,659.5L510,705.5L528,682.5z"><animate attributeName="fill" values="#1f1f1f" repeatCount="indefinite" begin="0s" dur="10s"/></path><path d="M833,702.5L977,757.5L977,716.5z"><animate attributeName="fill" values="#191919" repeatCount="indefinite" begin="0s" dur="10s"/></path><path d="M833,702.5L861,803.5L977,757.5z"><animate attributeName="fill" values="#191919" repeatCount="indefinite" begin="0s" dur="10s"/></path><path d="M525,661.5L528,682.5L543,671.5z"><animate attributeName="fill" values="#1f1f1f" repeatCount="indefinite" begin="0s" dur="10s"/></path><path d="M510,705.5L435,759.5L495,749.5z"><animate attributeName="fill" values="#1d1d1d" repeatCount="indefinite" begin="0s" dur="10s"/></path><path d="M543,671.5L528,682.5L557,800.5z"><animate attributeName="fill" values="#1d1d1d" repeatCount="indefinite" begin="0s" dur="10s"/></path><path d="M43,665.5L5,688.5L79,703.5z"><animate attributeName="fill" values="#191919" repeatCount="indefinite" begin="0s" dur="10s"/></path><path d="M528,682.5L510,705.5L557,800.5z"><animate attributeName="fill" values="#1d1d1d" repeatCount="indefinite" begin="0s" dur="10s"/></path><path d="M5,688.5L-1,715.5L79,703.5z"><animate attributeName="fill" values="#191919" repeatCount="indefinite" begin="0s" dur="10s"/></path><path d="M-196,697.5L-196,803.5L-112,803.5z"><animate attributeName="fill" values="#161616" repeatCount="indefinite" begin="0s" dur="10s"/></path><path d="M118,685.5L79,703.5L192,784.5z"><animate attributeName="fill" values="#1a1a1a" repeatCount="indefinite" begin="0s" dur="10s"/></path><path d="M510,705.5L495,749.5L557,800.5z"><animate attributeName="fill" values="#1c1c1c" repeatCount="indefinite" begin="0s" dur="10s"/></path><path d="M79,703.5L185,798.5L192,784.5z"><animate attributeName="fill" values="#191919" repeatCount="indefinite" begin="0s" dur="10s"/></path><path d="M833,702.5L707,782.5L861,803.5z"><animate attributeName="fill" values="#1a1a1a" repeatCount="indefinite" begin="0s" dur="10s"/></path><path d="M5,688.5L-11,690.5L-1,715.5z"><animate attributeName="fill" values="#191919" repeatCount="indefinite" begin="0s" dur="10s"/></path><path d="M687,736.5L557,800.5L695,765.5z"><animate attributeName="fill" values="#1b1b1b" repeatCount="indefinite" begin="0s" dur="10s"/></path><path d="M285,743.5L192,784.5L233,803.5z"><animate attributeName="fill" values="#1a1a1a" repeatCount="indefinite" begin="0s" dur="10s"/></path><path d="M79,703.5L-1,715.5L185,798.5z"><animate attributeName="fill" values="#191919" repeatCount="indefinite" begin="0s" dur="10s"/></path><path d="M336,740.5L391,803.5L435,759.5z"><animate attributeName="fill" values="#1b1b1b" repeatCount="indefinite" begin="0s" dur="10s"/></path><path d="M977,757.5L861,803.5L977,787.5z"><animate attributeName="fill" values="#181818" repeatCount="indefinite" begin="0s" dur="10s"/></path><path d="M-1,715.5L-112,803.5L185,798.5z"><animate attributeName="fill" values="#181818" repeatCount="indefinite" begin="0s" dur="10s"/></path><path d="M435,759.5L391,803.5L414,803.5z"><animate attributeName="fill" values="#1b1b1b" repeatCount="indefinite" begin="0s" dur="10s"/></path><path d="M495,749.5L521,803.5L557,800.5z"><animate attributeName="fill" values="#1b1b1b" repeatCount="indefinite" begin="0s" dur="10s"/></path><path d="M285,743.5L233,803.5L263,803.5z"><animate attributeName="fill" values="#1a1a1a" repeatCount="indefinite" begin="0s" dur="10s"/></path><path d="M336,740.5L285,743.5L263,803.5z"><animate attributeName="fill" values="#1b1b1b" repeatCount="indefinite" begin="0s" dur="10s"/></path><path d="M977,787.5L861,803.5L977,803.5z"><animate attributeName="fill" values="#181818" repeatCount="indefinite" begin="0s" dur="10s"/></path><path d="M695,765.5L557,800.5L707,782.5z"><animate attributeName="fill" values="#1b1b1b" repeatCount="indefinite" begin="0s" dur="10s"/></path><path d="M336,740.5L263,803.5L391,803.5z"><animate attributeName="fill" values="#1b1b1b" repeatCount="indefinite" begin="0s" dur="10s"/></path><path d="M495,749.5L435,759.5L510,803.5z"><animate attributeName="fill" values="#1c1c1c" repeatCount="indefinite" begin="0s" dur="10s"/></path><path d="M495,749.5L510,803.5L521,803.5z"><animate attributeName="fill" values="#1b1b1b" repeatCount="indefinite" begin="0s" dur="10s"/></path><path d="M435,759.5L414,803.5L510,803.5z"><animate attributeName="fill" values="#1b1b1b" repeatCount="indefinite" begin="0s" dur="10s"/></path><path d="M192,784.5L185,798.5L233,803.5z"><animate attributeName="fill" values="#191919" repeatCount="indefinite" begin="0s" dur="10s"/></path><path d="M707,782.5L557,800.5L861,803.5z"><animate attributeName="fill" values="#1a1a1a" repeatCount="indefinite" begin="0s" dur="10s"/></path><path d="M557,800.5L521,803.5L861,803.5z"><animate attributeName="fill" values="#1a1a1a" repeatCount="indefinite" begin="0s" dur="10s"/></path><path d="M185,798.5L-112,803.5L233,803.5z"><animate attributeName="fill" values="#181818" repeatCount="indefinite" begin="0s" dur="10s"/></path></svg>