<svg id="gem" xmlns="http://www.w3.org/2000/svg" xmlns:xlink="http://www.w3.org/1999/xlink" width="500px" height="500px" viewBox="-114.5 -196 689 1173"><path d="M562.5,74L522.5,53L458.5,98z"><animate attributeName="fill" values="#242424" repeatCount="indefinite" begin="0s" dur="10s"/></path>,<path d="M568.5,199L428.5,252L546.5,287z"><animate attributeName="fill" values="#353535" repeatCount="indefinite" begin="0s" dur="10s"/></path>,<path d="M568.5,199L546.5,287L553.5,305z"><animate attributeName="fill" values="#383838" repeatCount="indefinite" begin="0s" dur="10s"/></path>,<path d="M568.5,199L553.5,305L560.5,341z"><animate attributeName="fill" values="#3b3b3b" repeatCount="indefinite" begin="0s" dur="10s"/></path>,<path d="M574.5,977L510.5,968L464.5,977z"><animate attributeName="fill" values="#212121" repeatCount="indefinite" begin="0s" dur="10s"/></path>,<path d="M574.5,977L532.5,899L510.5,918z"><animate attributeName="fill" values="#232323" repeatCount="indefinite" begin="0s" dur="10s"/></path>,<path d="M574.5,977L510.5,918L510.5,968z"><animate attributeName="fill" values="#222222" repeatCount="indefinite" begin="0s" dur="10s"/></path>,<path d="M574.5,977L569.5,878L532.5,899z"><animate attributeName="fill" values="#242424" repeatCount="indefinite" begin="0s" dur="10s"/></path>,<path d="M574.5,68L551.5,60L562.5,74z"><animate attributeName="fill" values="#242424" repeatCount="indefinite" begin="0s" dur="10s"/></path>,<path d="M574.5,-3L440.5,-43L522.5,53z"><animate attributeName="fill" values="#202020" repeatCount="indefinite" begin="0s" dur="10s"/></path>,<path d="M574.5,-3L473.5,-139L440.5,-43z"><animate attributeName="fill" values="#1e1e1e" repeatCount="indefinite" begin="0s" dur="10s"/></path>,<path d="M574.5,-3L512.5,-181L473.5,-139z"><animate attributeName="fill" values="#1c1c1c" repeatCount="indefinite" begin="0s" dur="10s"/></path>,<path d="M574.5,391L560.5,341L466.5,479z"><animate attributeName="fill" values="#616161" repeatCount="indefinite" begin="0s" dur="10s"/></path>,<path d="M574.5,391L466.5,479L547.5,494z"><animate attributeName="fill" values="#787878" repeatCount="indefinite" begin="0s" dur="10s"/></path>,<path d="M574.5,391L568.5,199L560.5,341z"><animate attributeName="fill" values="#414141" repeatCount="indefinite" begin="0s" dur="10s"/></path>,<path d="M574.5,736L504.5,681L510.5,817z"><animate attributeName="fill" values="#343434" repeatCount="indefinite" begin="0s" dur="10s"/></path>,<path d="M574.5,736L526.5,615L504.5,681z"><animate attributeName="fill" values="#414141" repeatCount="indefinite" begin="0s" dur="10s"/></path>,<path d="M574.5,-196L512.5,-181L574.5,-3z"><animate attributeName="fill" values="#1b1b1b" repeatCount="indefinite" begin="0s" dur="10s"/></path>,<path d="M574.5,-196L551.5,-196L512.5,-181z"><animate attributeName="fill" values="#1a1a1a" repeatCount="indefinite" begin="0s" dur="10s"/></path>,<path d="M574.5,769L520.5,842L560.5,869z"><animate attributeName="fill" values="#2b2b2b" repeatCount="indefinite" begin="0s" dur="10s"/></path>,<path d="M574.5,769L510.5,817L520.5,842z"><animate attributeName="fill" values="#2c2c2c" repeatCount="indefinite" begin="0s" dur="10s"/></path>,<path d="M574.5,769L574.5,736L510.5,817z"><animate attributeName="fill" values="#303030" repeatCount="indefinite" begin="0s" dur="10s"/></path>,<path d="M574.5,769L560.5,869L569.5,878z"><animate attributeName="fill" values="#292929" repeatCount="indefinite" begin="0s" dur="10s"/></path>,<path d="M574.5,769L569.5,878L574.5,977z"><animate attributeName="fill" values="#262626" repeatCount="indefinite" begin="0s" dur="10s"/></path>,<path d="M574.5,496L547.5,494L529.5,544z"><animate attributeName="fill" values="#7b7b7b" repeatCount="indefinite" begin="0s" dur="10s"/></path>,<path d="M574.5,496L529.5,544L526.5,615z"><animate attributeName="fill" values="#6e6e6e" repeatCount="indefinite" begin="0s" dur="10s"/></path>,<path d="M574.5,496L526.5,615L574.5,736z"><animate attributeName="fill" values="#525252" repeatCount="indefinite" begin="0s" dur="10s"/></path>,<path d="M574.5,496L574.5,391L547.5,494z"><animate attributeName="fill" values="#747474" repeatCount="indefinite" begin="0s" dur="10s"/></path>,<path d="M574.5,7L574.5,-3L522.5,53z"><animate attributeName="fill" values="#212121" repeatCount="indefinite" begin="0s" dur="10s"/></path>,<path d="M574.5,7L522.5,53L551.5,60z"><animate attributeName="fill" values="#222222" repeatCount="indefinite" begin="0s" dur="10s"/></path>,<path d="M574.5,7L551.5,60L574.5,68z"><animate attributeName="fill" values="#222222" repeatCount="indefinite" begin="0s" dur="10s"/></path>,<path d="M574.5,131L458.5,98L567.5,148z"><animate attributeName="fill" values="#282828" repeatCount="indefinite" begin="0s" dur="10s"/></path>,<path d="M574.5,131L562.5,74L458.5,98z"><animate attributeName="fill" values="#262626" repeatCount="indefinite" begin="0s" dur="10s"/></path>,<path d="M574.5,131L574.5,68L562.5,74z"><animate attributeName="fill" values="#252525" repeatCount="indefinite" begin="0s" dur="10s"/></path>,<path d="M574.5,131L567.5,148L568.5,199z"><animate attributeName="fill" values="#2a2a2a" repeatCount="indefinite" begin="0s" dur="10s"/></path>,<path d="M574.5,131L568.5,199L574.5,391z"><animate attributeName="fill" values="#343434" repeatCount="indefinite" begin="0s" dur="10s"/></path>,<path d="M568.5,199L567.5,148L458.5,98z"><animate attributeName="fill" values="#2a2a2a" repeatCount="indefinite" begin="0s" dur="10s"/></path>,<path d="M568.5,199L458.5,98L407.5,165z"><animate attributeName="fill" values="#2a2a2a" repeatCount="indefinite" begin="0s" dur="10s"/></path>,<path d="M569.5,878L560.5,869L532.5,899z"><animate attributeName="fill" values="#262626" repeatCount="indefinite" begin="0s" dur="10s"/></path>,<path d="M568.5,199L407.5,165L428.5,252z"><animate attributeName="fill" values="#2f2f2f" repeatCount="indefinite" begin="0s" dur="10s"/></path>,<path d="M473.5,-139L431.5,-72L440.5,-43z"><animate attributeName="fill" values="#1d1d1d" repeatCount="indefinite" begin="0s" dur="10s"/></path>,<path d="M562.5,74L551.5,60L522.5,53z"><animate attributeName="fill" values="#232323" repeatCount="indefinite" begin="0s" dur="10s"/></path>,<path d="M560.5,341L428.5,252L466.5,479z"><animate attributeName="fill" values="#4d4d4d" repeatCount="indefinite" begin="0s" dur="10s"/></path>,<path d="M560.5,869L520.5,842L532.5,899z"><animate attributeName="fill" values="#272727" repeatCount="indefinite" begin="0s" dur="10s"/></path>,<path d="M560.5,341L553.5,305L428.5,252z"><animate attributeName="fill" values="#3f3f3f" repeatCount="indefinite" begin="0s" dur="10s"/></path>,<path d="M522.5,53L440.5,-43L458.5,52z"><animate attributeName="fill" values="#212121" repeatCount="indefinite" begin="0s" dur="10s"/></path>,<path d="M551.5,-196L517.5,-196L512.5,-181z"><animate attributeName="fill" values="#1a1a1a" repeatCount="indefinite" begin="0s" dur="10s"/></path>,<path d="M553.5,305L546.5,287L428.5,252z"><animate attributeName="fill" values="#3b3b3b" repeatCount="indefinite" begin="0s" dur="10s"/></path>,<path d="M547.5,494L466.5,479L529.5,544z"><animate attributeName="fill" values="#7d7d7d" repeatCount="indefinite" begin="0s" dur="10s"/></path>,<path d="M529.5,544L473.5,610L526.5,615z"><animate attributeName="fill" values="#5d5d5d" repeatCount="indefinite" begin="0s" dur="10s"/></path>,<path d="M526.5,615L461.5,636L504.5,681z"><animate attributeName="fill" values="#494949" repeatCount="indefinite" begin="0s" dur="10s"/></path>,<path d="M526.5,615L473.5,610L461.5,636z"><animate attributeName="fill" values="#4f4f4f" repeatCount="indefinite" begin="0s" dur="10s"/></path>,<path d="M532.5,899L520.5,842L453.5,881z"><animate attributeName="fill" values="#272727" repeatCount="indefinite" begin="0s" dur="10s"/></path>,<path d="M532.5,899L453.5,881L510.5,918z"><animate attributeName="fill" values="#252525" repeatCount="indefinite" begin="0s" dur="10s"/></path>,<path d="M510.5,817L504.5,681L322.5,818z"><animate attributeName="fill" values="#2f2f2f" repeatCount="indefinite" begin="0s" dur="10s"/></path>,<path d="M529.5,544L466.5,479L473.5,610z"><animate attributeName="fill" values="#6c6c6c" repeatCount="indefinite" begin="0s" dur="10s"/></path>,<path d="M522.5,53L458.5,52L458.5,98z"><animate attributeName="fill" values="#232323" repeatCount="indefinite" begin="0s" dur="10s"/></path>,<path d="M520.5,842L510.5,817L453.5,881z"><animate attributeName="fill" values="#292929" repeatCount="indefinite" begin="0s" dur="10s"/></path>,<path d="M473.5,610L466.5,479L380.5,555z"><animate attributeName="fill" values="#5a5a5a" repeatCount="indefinite" begin="0s" dur="10s"/></path>,<path d="M504.5,681L412.5,622L322.5,818z"><animate attributeName="fill" values="#363636" repeatCount="indefinite" begin="0s" dur="10s"/></path>,<path d="M510.5,918L464.5,977L510.5,968z"><animate attributeName="fill" values="#222222" repeatCount="indefinite" begin="0s" dur="10s"/></path>,<path d="M517.5,-196L458.5,-196L512.5,-181z"><animate attributeName="fill" values="#1a1a1a" repeatCount="indefinite" begin="0s" dur="10s"/></path>,<path d="M504.5,681L461.5,636L412.5,622z"><animate attributeName="fill" values="#454545" repeatCount="indefinite" begin="0s" dur="10s"/></path>,<path d="M510.5,817L322.5,818L453.5,881z"><animate attributeName="fill" values="#282828" repeatCount="indefinite" begin="0s" dur="10s"/></path>,<path d="M512.5,-181L458.5,-196L473.5,-139z"><animate attributeName="fill" values="#1a1a1a" repeatCount="indefinite" begin="0s" dur="10s"/></path>,<path d="M510.5,918L453.5,881L464.5,977z"><animate attributeName="fill" values="#232323" repeatCount="indefinite" begin="0s" dur="10s"/></path>,<path d="M305.5,534L272.5,224L194.5,474z"><animate attributeName="fill" values="#303030" repeatCount="indefinite" begin="0s" dur="10s"/></path>,<path d="M412.5,622L291.5,779L322.5,818z"><animate attributeName="fill" values="#2d2d2d" repeatCount="indefinite" begin="0s" dur="10s"/></path>,<path d="M428.5,252L272.5,224L305.5,534z"><animate attributeName="fill" values="#353535" repeatCount="indefinite" begin="0s" dur="10s"/></path>,<path d="M453.5,881L322.5,818L346.5,879z"><animate attributeName="fill" values="#252525" repeatCount="indefinite" begin="0s" dur="10s"/></path>,<path d="M464.5,977L453.5,881L346.5,879z"><animate attributeName="fill" values="#232323" repeatCount="indefinite" begin="0s" dur="10s"/></path>,<path d="M466.5,479L428.5,252L305.5,534z"><animate attributeName="fill" values="#4b4b4b" repeatCount="indefinite" begin="0s" dur="10s"/></path>,<path d="M473.5,-139L458.5,-196L348.5,-104z"><animate attributeName="fill" values="#1b1b1b" repeatCount="indefinite" begin="0s" dur="10s"/></path>,<path d="M473.5,-139L348.5,-104L431.5,-72z"><animate attributeName="fill" values="#1c1c1c" repeatCount="indefinite" begin="0s" dur="10s"/></path>,<path d="M473.5,610L412.5,622L461.5,636z"><animate attributeName="fill" values="#4a4a4a" repeatCount="indefinite" begin="0s" dur="10s"/></path>,<path d="M473.5,610L380.5,555L412.5,622z"><animate attributeName="fill" values="#4b4b4b" repeatCount="indefinite" begin="0s" dur="10s"/></path>,<path d="M458.5,52L440.5,-43L357.5,-45z"><animate attributeName="fill" values="#1f1f1f" repeatCount="indefinite" begin="0s" dur="10s"/></path>,<path d="M464.5,977L346.5,879L294.5,977z"><animate attributeName="fill" values="#212121" repeatCount="indefinite" begin="0s" dur="10s"/></path>,<path d="M466.5,479L305.5,534L380.5,555z"><animate attributeName="fill" values="#4b4b4b" repeatCount="indefinite" begin="0s" dur="10s"/></path>,<path d="M458.5,52L273.5,32L322.5,159z"><animate attributeName="fill" values="#222222" repeatCount="indefinite" begin="0s" dur="10s"/></path>,<path d="M458.5,98L458.5,52L322.5,159z"><animate attributeName="fill" values="#252525" repeatCount="indefinite" begin="0s" dur="10s"/></path>,<path d="M458.5,98L322.5,159L407.5,165z"><animate attributeName="fill" values="#272727" repeatCount="indefinite" begin="0s" dur="10s"/></path>,<path d="M458.5,-196L303.5,-151L348.5,-104z"><animate attributeName="fill" values="#1a1a1a" repeatCount="indefinite" begin="0s" dur="10s"/></path>,<path d="M458.5,-196L283.5,-196L303.5,-151z"><animate attributeName="fill" values="#191919" repeatCount="indefinite" begin="0s" dur="10s"/></path>,<path d="M458.5,52L357.5,-45L273.5,32z"><animate attributeName="fill" values="#1f1f1f" repeatCount="indefinite" begin="0s" dur="10s"/></path>,<path d="M412.5,622L245.5,681L291.5,779z"><animate attributeName="fill" values="#2f2f2f" repeatCount="indefinite" begin="0s" dur="10s"/></path>,<path d="M440.5,-43L431.5,-72L357.5,-45z"><animate attributeName="fill" values="#1d1d1d" repeatCount="indefinite" begin="0s" dur="10s"/></path>,<path d="M428.5,252L407.5,165L322.5,159z"><animate attributeName="fill" values="#2b2b2b" repeatCount="indefinite" begin="0s" dur="10s"/></path>,<path d="M431.5,-72L348.5,-104L357.5,-45z"><animate attributeName="fill" values="#1c1c1c" repeatCount="indefinite" begin="0s" dur="10s"/></path>,<path d="M428.5,252L322.5,159L272.5,224z"><animate attributeName="fill" values="#2a2a2a" repeatCount="indefinite" begin="0s" dur="10s"/></path>,<path d="M412.5,622L380.5,555L245.5,681z"><animate attributeName="fill" values="#393939" repeatCount="indefinite" begin="0s" dur="10s"/></path>,<path d="M380.5,555L305.5,534L245.5,681z"><animate attributeName="fill" values="#363636" repeatCount="indefinite" begin="0s" dur="10s"/></path>,<path d="M322.5,159L273.5,213L272.5,224z"><animate attributeName="fill" values="#272727" repeatCount="indefinite" begin="0s" dur="10s"/></path>,<path d="M272.5,224L169.5,463L194.5,474z"><animate attributeName="fill" values="#2a2a2a" repeatCount="indefinite" begin="0s" dur="10s"/></path>,<path d="M346.5,879L322.5,818L299.5,870z"><animate attributeName="fill" values="#242424" repeatCount="indefinite" begin="0s" dur="10s"/></path>,<path d="M346.5,879L299.5,870L294.5,977z"><animate attributeName="fill" values="#212121" repeatCount="indefinite" begin="0s" dur="10s"/></path>,<path d="M357.5,-45L244.5,3L273.5,32z"><animate attributeName="fill" values="#1e1e1e" repeatCount="indefinite" begin="0s" dur="10s"/></path>,<path d="M357.5,-45L244.5,-68L244.5,3z"><animate attributeName="fill" values="#1c1c1c" repeatCount="indefinite" begin="0s" dur="10s"/></path>,<path d="M357.5,-45L348.5,-104L244.5,-68z"><animate attributeName="fill" values="#1c1c1c" repeatCount="indefinite" begin="0s" dur="10s"/></path>,<path d="M272.5,224L97.5,320L169.5,463z"><animate attributeName="fill" values="#262626" repeatCount="indefinite" begin="0s" dur="10s"/></path>,<path d="M291.5,779L245.5,681L233.5,719z"><animate attributeName="fill" values="#282828" repeatCount="indefinite" begin="0s" dur="10s"/></path>,<path d="M348.5,-104L303.5,-151L244.5,-68z"><animate attributeName="fill" values="#1b1b1b" repeatCount="indefinite" begin="0s" dur="10s"/></path>,<path d="M272.5,224L111.5,277L97.5,320z"><animate attributeName="fill" values="#232323" repeatCount="indefinite" begin="0s" dur="10s"/></path>,<path d="M299.5,870L229.5,977L294.5,977z"><animate attributeName="fill" values="#1f1f1f" repeatCount="indefinite" begin="0s" dur="10s"/></path>,<path d="M299.5,870L211.5,880L229.5,977z"><animate attributeName="fill" values="#202020" repeatCount="indefinite" begin="0s" dur="10s"/></path>,<path d="M305.5,534L189.5,631L245.5,681z"><animate attributeName="fill" values="#2d2d2d" repeatCount="indefinite" begin="0s" dur="10s"/></path>,<path d="M322.5,818L291.5,779L299.5,870z"><animate attributeName="fill" values="#252525" repeatCount="indefinite" begin="0s" dur="10s"/></path>,<path d="M322.5,159L273.5,32L273.5,213z"><animate attributeName="fill" values="#232323" repeatCount="indefinite" begin="0s" dur="10s"/></path>,<path d="M229.5,-196L34.5,-196L170.5,-173z"><animate attributeName="fill" values="#181818" repeatCount="indefinite" begin="0s" dur="10s"/></path>,<path d="M273.5,32L89.5,121L273.5,213z"><animate attributeName="fill" values="#202020" repeatCount="indefinite" begin="0s" dur="10s"/></path>,<path d="M273.5,32L104.5,66L89.5,121z"><animate attributeName="fill" values="#1d1d1d" repeatCount="indefinite" begin="0s" dur="10s"/></path>,<path d="M299.5,870L291.5,779L211.5,880z"><animate attributeName="fill" values="#232323" repeatCount="indefinite" begin="0s" dur="10s"/></path>,<path d="M303.5,-151L229.5,-196L244.5,-68z"><animate attributeName="fill" values="#1a1a1a" repeatCount="indefinite" begin="0s" dur="10s"/></path>,<path d="M305.5,534L194.5,474L166.5,571z"><animate attributeName="fill" values="#2d2d2d" repeatCount="indefinite" begin="0s" dur="10s"/></path>,<path d="M305.5,534L166.5,571L189.5,631z"><animate attributeName="fill" values="#2c2c2c" repeatCount="indefinite" begin="0s" dur="10s"/></path>,<path d="M303.5,-151L283.5,-196L229.5,-196z"><animate attributeName="fill" values="#191919" repeatCount="indefinite" begin="0s" dur="10s"/></path>,<path d="M244.5,-68L223.5,-18L244.5,3z"><animate attributeName="fill" values="#1c1c1c" repeatCount="indefinite" begin="0s" dur="10s"/></path>,<path d="M291.5,779L233.5,719L211.5,880z"><animate attributeName="fill" values="#242424" repeatCount="indefinite" begin="0s" dur="10s"/></path>,<path d="M244.5,-68L229.5,-196L170.5,-173z"><animate attributeName="fill" values="#191919" repeatCount="indefinite" begin="0s" dur="10s"/></path>,<path d="M273.5,32L244.5,3L104.5,66z"><animate attributeName="fill" values="#1d1d1d" repeatCount="indefinite" begin="0s" dur="10s"/></path>,<path d="M273.5,213L89.5,121L111.5,277z"><animate attributeName="fill" values="#212121" repeatCount="indefinite" begin="0s" dur="10s"/></path>,<path d="M273.5,213L111.5,277L272.5,224z"><animate attributeName="fill" values="#252525" repeatCount="indefinite" begin="0s" dur="10s"/></path>,<path d="M170.5,-173L34.5,-196L119.5,-165z"><animate attributeName="fill" values="#171717" repeatCount="indefinite" begin="0s" dur="10s"/></path>,<path d="M211.5,880L151.5,699L69.5,758z"><animate attributeName="fill" values="#212121" repeatCount="indefinite" begin="0s" dur="10s"/></path>,<path d="M229.5,977L211.5,880L166.5,977z"><animate attributeName="fill" values="#1d1d1d" repeatCount="indefinite" begin="0s" dur="10s"/></path>,<path d="M233.5,719L151.5,699L211.5,880z"><animate attributeName="fill" values="#232323" repeatCount="indefinite" begin="0s" dur="10s"/></path>,<path d="M244.5,3L223.5,-18L200.5,-22z"><animate attributeName="fill" values="#1c1c1c" repeatCount="indefinite" begin="0s" dur="10s"/></path>,<path d="M244.5,3L200.5,-22L188.5,-20z"><animate attributeName="fill" values="#1c1c1c" repeatCount="indefinite" begin="0s" dur="10s"/></path>,<path d="M244.5,3L188.5,-20L104.5,66z"><animate attributeName="fill" values="#1c1c1c" repeatCount="indefinite" begin="0s" dur="10s"/></path>,<path d="M244.5,-68L129.5,-72L200.5,-22z"><animate attributeName="fill" values="#1b1b1b" repeatCount="indefinite" begin="0s" dur="10s"/></path>,<path d="M244.5,-68L170.5,-173L129.5,-72z"><animate attributeName="fill" values="#191919" repeatCount="indefinite" begin="0s" dur="10s"/></path>,<path d="M244.5,-68L200.5,-22L223.5,-18z"><animate attributeName="fill" values="#1c1c1c" repeatCount="indefinite" begin="0s" dur="10s"/></path>,<path d="M245.5,681L151.5,699L233.5,719z"><animate attributeName="fill" values="#272727" repeatCount="indefinite" begin="0s" dur="10s"/></path>,<path d="M245.5,681L189.5,631L151.5,699z"><animate attributeName="fill" values="#272727" repeatCount="indefinite" begin="0s" dur="10s"/></path>,<path d="M200.5,-22L129.5,-72L188.5,-20z"><animate attributeName="fill" values="#1b1b1b" repeatCount="indefinite" begin="0s" dur="10s"/></path>,<path d="M194.5,474L169.5,463L166.5,571z"><animate attributeName="fill" values="#292929" repeatCount="indefinite" begin="0s" dur="10s"/></path>,<path d="M211.5,880L20.5,854L83.5,945z"><animate attributeName="fill" values="#1d1d1d" repeatCount="indefinite" begin="0s" dur="10s"/></path>,<path d="M211.5,880L69.5,758L20.5,854z"><animate attributeName="fill" values="#1e1e1e" repeatCount="indefinite" begin="0s" dur="10s"/></path>,<path d="M211.5,880L83.5,945L166.5,977z"><animate attributeName="fill" values="#1d1d1d" repeatCount="indefinite" begin="0s" dur="10s"/></path>,<path d="M169.5,463L97.5,320L65.5,438z"><animate attributeName="fill" values="#232323" repeatCount="indefinite" begin="0s" dur="10s"/></path>,<path d="M170.5,-173L119.5,-165L129.5,-72z"><animate attributeName="fill" values="#181818" repeatCount="indefinite" begin="0s" dur="10s"/></path>,<path d="M189.5,631L119.5,662L151.5,699z"><animate attributeName="fill" values="#242424" repeatCount="indefinite" begin="0s" dur="10s"/></path>,<path d="M188.5,-20L73.5,14L104.5,66z"><animate attributeName="fill" values="#1b1b1b" repeatCount="indefinite" begin="0s" dur="10s"/></path>,<path d="M166.5,977L83.5,945L17.5,977z"><animate attributeName="fill" values="#1b1b1b" repeatCount="indefinite" begin="0s" dur="10s"/></path>,<path d="M188.5,-20L129.5,-72L74.5,-33z"><animate attributeName="fill" values="#1a1a1a" repeatCount="indefinite" begin="0s" dur="10s"/></path>,<path d="M188.5,-20L74.5,-33L73.5,14z"><animate attributeName="fill" values="#1a1a1a" repeatCount="indefinite" begin="0s" dur="10s"/></path>,<path d="M189.5,631L166.5,571L119.5,662z"><animate attributeName="fill" values="#262626" repeatCount="indefinite" begin="0s" dur="10s"/></path>,<path d="M97.5,320L51.5,354L65.5,438z"><animate attributeName="fill" values="#212121" repeatCount="indefinite" begin="0s" dur="10s"/></path>,<path d="M119.5,-165L34.5,-196L78.5,-164z"><animate attributeName="fill" values="#171717" repeatCount="indefinite" begin="0s" dur="10s"/></path>,<path d="M166.5,571L52.5,618L119.5,662z"><animate attributeName="fill" values="#232323" repeatCount="indefinite" begin="0s" dur="10s"/></path>,<path d="M169.5,463L65.5,438L29.5,493z"><animate attributeName="fill" values="#232323" repeatCount="indefinite" begin="0s" dur="10s"/></path>,<path d="M169.5,463L27.5,525L166.5,571z"><animate attributeName="fill" values="#252525" repeatCount="indefinite" begin="0s" dur="10s"/></path>,<path d="M169.5,463L29.5,493L27.5,525z"><animate attributeName="fill" values="#222222" repeatCount="indefinite" begin="0s" dur="10s"/></path>,<path d="M166.5,571L27.5,525L52.5,618z"><animate attributeName="fill" values="#222222" repeatCount="indefinite" begin="0s" dur="10s"/></path>,<path d="M97.5,320L74.5,328L51.5,354z"><animate attributeName="fill" values="#212121" repeatCount="indefinite" begin="0s" dur="10s"/></path>,<path d="M129.5,-72L119.5,-165L78.5,-164z"><animate attributeName="fill" values="#181818" repeatCount="indefinite" begin="0s" dur="10s"/></path>,<path d="M151.5,699L119.5,662L69.5,758z"><animate attributeName="fill" values="#212121" repeatCount="indefinite" begin="0s" dur="10s"/></path>,<path d="M52.5,618L27.5,525L17.5,543z"><animate attributeName="fill" values="#202020" repeatCount="indefinite" begin="0s" dur="10s"/></path>,<path d="M111.5,277L89.5,121L3.5,118z"><animate attributeName="fill" values="#1d1d1d" repeatCount="indefinite" begin="0s" dur="10s"/></path>,<path d="M129.5,-72L78.5,-164L74.5,-33z"><animate attributeName="fill" values="#191919" repeatCount="indefinite" begin="0s" dur="10s"/></path>,<path d="M111.5,277L3.5,118L-54.5,285z"><animate attributeName="fill" values="#1d1d1d" repeatCount="indefinite" begin="0s" dur="10s"/></path>,<path d="M119.5,662L52.5,618L69.5,758z"><animate attributeName="fill" values="#202020" repeatCount="indefinite" begin="0s" dur="10s"/></path>,<path d="M104.5,66L66.5,71L89.5,121z"><animate attributeName="fill" values="#1c1c1c" repeatCount="indefinite" begin="0s" dur="10s"/></path>,<path d="M104.5,66L73.5,14L66.5,71z"><animate attributeName="fill" values="#1b1b1b" repeatCount="indefinite" begin="0s" dur="10s"/></path>,<path d="M111.5,277L-54.5,285L74.5,328z"><animate attributeName="fill" values="#1f1f1f" repeatCount="indefinite" begin="0s" dur="10s"/></path>,<path d="M111.5,277L74.5,328L97.5,320z"><animate attributeName="fill" values="#212121" repeatCount="indefinite" begin="0s" dur="10s"/></path>,<path d="M69.5,758L52.5,618L-47.5,687z"><animate attributeName="fill" values="#1e1e1e" repeatCount="indefinite" begin="0s" dur="10s"/></path>,<path d="M78.5,-164L-1.5,-11L74.5,-33z"><animate attributeName="fill" values="#181818" repeatCount="indefinite" begin="0s" dur="10s"/></path>,<path d="M78.5,-164L7.5,-196L-1.5,-11z"><animate attributeName="fill" values="#171717" repeatCount="indefinite" begin="0s" dur="10s"/></path>,<path d="M7.5,-196L-8.5,-196L-1.5,-11z"><animate attributeName="fill" values="#171717" repeatCount="indefinite" begin="0s" dur="10s"/></path>,<path d="M73.5,14L40.5,55L66.5,71z"><animate attributeName="fill" values="#1b1b1b" repeatCount="indefinite" begin="0s" dur="10s"/></path>,<path d="M83.5,945L20.5,854L17.5,977z"><animate attributeName="fill" values="#1a1a1a" repeatCount="indefinite" begin="0s" dur="10s"/></path>,<path d="M89.5,121L66.5,71L3.5,118z"><animate attributeName="fill" values="#1b1b1b" repeatCount="indefinite" begin="0s" dur="10s"/></path>,<path d="M3.5,118L-95.5,192L-54.5,285z"><animate attributeName="fill" values="#1b1b1b" repeatCount="indefinite" begin="0s" dur="10s"/></path>,<path d="M69.5,758L-13.5,833L20.5,854z"><animate attributeName="fill" values="#1c1c1c" repeatCount="indefinite" begin="0s" dur="10s"/></path>,<path d="M78.5,-164L34.5,-196L7.5,-196z"><animate attributeName="fill" values="#171717" repeatCount="indefinite" begin="0s" dur="10s"/></path>,<path d="M73.5,14L-1.5,-11L0.5,5z"><animate attributeName="fill" values="#191919" repeatCount="indefinite" begin="0s" dur="10s"/></path>,<path d="M74.5,-33L-1.5,-11L73.5,14z"><animate attributeName="fill" values="#191919" repeatCount="indefinite" begin="0s" dur="10s"/></path>,<path d="M74.5,328L-54.5,285L51.5,354z"><animate attributeName="fill" values="#1e1e1e" repeatCount="indefinite" begin="0s" dur="10s"/></path>,<path d="M73.5,14L23.5,43L40.5,55z"><animate attributeName="fill" values="#1a1a1a" repeatCount="indefinite" begin="0s" dur="10s"/></path>,<path d="M73.5,14L0.5,5L23.5,43z"><animate attributeName="fill" values="#1a1a1a" repeatCount="indefinite" begin="0s" dur="10s"/></path>,<path d="M-1.5,-11L-8.5,-196L-114.5,-112z"><animate attributeName="fill" values="#171717" repeatCount="indefinite" begin="0s" dur="10s"/></path>,<path d="M51.5,354L-54.5,285L-51.5,336z"><animate attributeName="fill" values="#1d1d1d" repeatCount="indefinite" begin="0s" dur="10s"/></path>,<path d="M65.5,438L51.5,354L-70.5,435z"><animate attributeName="fill" values="#1f1f1f" repeatCount="indefinite" begin="0s" dur="10s"/></path>,<path d="M66.5,71L40.5,55L3.5,118z"><animate attributeName="fill" values="#1b1b1b" repeatCount="indefinite" begin="0s" dur="10s"/></path>,<path d="M69.5,758L-47.5,687L-13.5,833z"><animate attributeName="fill" values="#1c1c1c" repeatCount="indefinite" begin="0s" dur="10s"/></path>,<path d="M65.5,438L-70.5,435L29.5,493z"><animate attributeName="fill" values="#1f1f1f" repeatCount="indefinite" begin="0s" dur="10s"/></path>,<path d="M20.5,854L-27.5,977L17.5,977z"><animate attributeName="fill" values="#1a1a1a" repeatCount="indefinite" begin="0s" dur="10s"/></path>,<path d="M40.5,55L-14.5,79L3.5,118z"><animate attributeName="fill" values="#1a1a1a" repeatCount="indefinite" begin="0s" dur="10s"/></path>,<path d="M51.5,354L-51.5,336L-70.5,435z"><animate attributeName="fill" values="#1d1d1d" repeatCount="indefinite" begin="0s" dur="10s"/></path>,<path d="M52.5,618L17.5,543L-47.5,687z"><animate attributeName="fill" values="#1e1e1e" repeatCount="indefinite" begin="0s" dur="10s"/></path>,<path d="M17.5,543L-111.5,557L-47.5,687z"><animate attributeName="fill" values="#1c1c1c" repeatCount="indefinite" begin="0s" dur="10s"/></path>,<path d="M29.5,493L-70.5,435L-16.5,510z"><animate attributeName="fill" values="#1e1e1e" repeatCount="indefinite" begin="0s" dur="10s"/></path>,<path d="M40.5,55L23.5,43L-14.5,79z"><animate attributeName="fill" values="#1a1a1a" repeatCount="indefinite" begin="0s" dur="10s"/></path>,<path d="M20.5,854L-13.5,833L-27.5,977z"><animate attributeName="fill" values="#1a1a1a" repeatCount="indefinite" begin="0s" dur="10s"/></path>,<path d="M29.5,493L6.5,528L27.5,525z"><animate attributeName="fill" values="#1f1f1f" repeatCount="indefinite" begin="0s" dur="10s"/></path>,<path d="M-13.5,833L-47.5,687L-76.5,695z"><animate attributeName="fill" values="#1b1b1b" repeatCount="indefinite" begin="0s" dur="10s"/></path>,<path d="M-13.5,833L-76.5,695L-93.5,707z"><animate attributeName="fill" values="#1b1b1b" repeatCount="indefinite" begin="0s" dur="10s"/></path>,<path d="M-1.5,-11L-114.5,-112L-26.5,-1z"><animate attributeName="fill" values="#171717" repeatCount="indefinite" begin="0s" dur="10s"/></path>,<path d="M29.5,493L-16.5,510L6.5,528z"><animate attributeName="fill" values="#1f1f1f" repeatCount="indefinite" begin="0s" dur="10s"/></path>,<path d="M-13.5,833L-68.5,977L-27.5,977z"><animate attributeName="fill" values="#191919" repeatCount="indefinite" begin="0s" dur="10s"/></path>,<path d="M-13.5,833L-114.5,861L-68.5,977z"><animate attributeName="fill" values="#191919" repeatCount="indefinite" begin="0s" dur="10s"/></path>,<path d="M27.5,525L6.5,528L17.5,543z"><animate attributeName="fill" values="#1f1f1f" repeatCount="indefinite" begin="0s" dur="10s"/></path>,<path d="M-16.5,510L-70.5,435L-60.5,495z"><animate attributeName="fill" values="#1d1d1d" repeatCount="indefinite" begin="0s" dur="10s"/></path>,<path d="M17.5,543L6.5,528L-111.5,557z"><animate attributeName="fill" values="#1d1d1d" repeatCount="indefinite" begin="0s" dur="10s"/></path>,<path d="M23.5,43L0.5,5L-14.5,79z"><animate attributeName="fill" values="#191919" repeatCount="indefinite" begin="0s" dur="10s"/></path>,<path d="M6.5,528L-16.5,510L-111.5,557z"><animate attributeName="fill" values="#1d1d1d" repeatCount="indefinite" begin="0s" dur="10s"/></path>,<path d="M0.5,5L-26.5,-1L-14.5,79z"><animate attributeName="fill" values="#191919" repeatCount="indefinite" begin="0s" dur="10s"/></path>,<path d="M-8.5,-196L-114.5,-196L-114.5,-112z"><animate attributeName="fill" values="#161616" repeatCount="indefinite" begin="0s" dur="10s"/></path>,<path d="M3.5,118L-14.5,79L-95.5,192z"><animate attributeName="fill" values="#1a1a1a" repeatCount="indefinite" begin="0s" dur="10s"/></path>,<path d="M-16.5,510L-60.5,495L-111.5,557z"><animate attributeName="fill" values="#1c1c1c" repeatCount="indefinite" begin="0s" dur="10s"/></path>,<path d="M-14.5,79L-109.5,185L-95.5,192z"><animate attributeName="fill" values="#191919" repeatCount="indefinite" begin="0s" dur="10s"/></path>,<path d="M-13.5,833L-93.5,707L-114.5,861z"><animate attributeName="fill" values="#1a1a1a" repeatCount="indefinite" begin="0s" dur="10s"/></path>,<path d="M0.5,5L-1.5,-11L-26.5,-1z"><animate attributeName="fill" values="#191919" repeatCount="indefinite" begin="0s" dur="10s"/></path>,<path d="M-47.5,687L-111.5,557L-76.5,695z"><animate attributeName="fill" values="#1b1b1b" repeatCount="indefinite" begin="0s" dur="10s"/></path>,<path d="M-54.5,285L-95.5,192L-114.5,233z"><animate attributeName="fill" values="#1a1a1a" repeatCount="indefinite" begin="0s" dur="10s"/></path>,<path d="M-14.5,79L-26.5,-1L-109.5,185z"><animate attributeName="fill" values="#191919" repeatCount="indefinite" begin="0s" dur="10s"/></path>,<path d="M-51.5,336L-114.5,391L-70.5,435z"><animate attributeName="fill" values="#1b1b1b" repeatCount="indefinite" begin="0s" dur="10s"/></path>,<path d="M-68.5,977L-114.5,861L-98.5,977z"><animate attributeName="fill" values="#181818" repeatCount="indefinite" begin="0s" dur="10s"/></path>,<path d="M-26.5,-1L-114.5,-112L-109.5,185z"><animate attributeName="fill" values="#181818" repeatCount="indefinite" begin="0s" dur="10s"/></path>,<path d="M-70.5,435L-114.5,391L-114.5,414z"><animate attributeName="fill" values="#1b1b1b" repeatCount="indefinite" begin="0s" dur="10s"/></path>,<path d="M-60.5,495L-114.5,521L-111.5,557z"><animate attributeName="fill" values="#1b1b1b" repeatCount="indefinite" begin="0s" dur="10s"/></path>,<path d="M-54.5,285L-114.5,233L-114.5,263z"><animate attributeName="fill" values="#1a1a1a" repeatCount="indefinite" begin="0s" dur="10s"/></path>,<path d="M-51.5,336L-54.5,285L-114.5,263z"><animate attributeName="fill" values="#1b1b1b" repeatCount="indefinite" begin="0s" dur="10s"/></path>,<path d="M-98.5,977L-114.5,861L-114.5,977z"><animate attributeName="fill" values="#181818" repeatCount="indefinite" begin="0s" dur="10s"/></path>,<path d="M-76.5,695L-111.5,557L-93.5,707z"><animate attributeName="fill" values="#1b1b1b" repeatCount="indefinite" begin="0s" dur="10s"/></path>,<path d="M-51.5,336L-114.5,263L-114.5,391z"><animate attributeName="fill" values="#1b1b1b" repeatCount="indefinite" begin="0s" dur="10s"/></path>,<path d="M-60.5,495L-70.5,435L-114.5,510z"><animate attributeName="fill" values="#1c1c1c" repeatCount="indefinite" begin="0s" dur="10s"/></path>,<path d="M-60.5,495L-114.5,510L-114.5,521z"><animate attributeName="fill" values="#1b1b1b" repeatCount="indefinite" begin="0s" dur="10s"/></path>,<path d="M-70.5,435L-114.5,414L-114.5,510z"><animate attributeName="fill" values="#1b1b1b" repeatCount="indefinite" begin="0s" dur="10s"/></path>,<path d="M-95.5,192L-109.5,185L-114.5,233z"><animate attributeName="fill" values="#191919" repeatCount="indefinite" begin="0s" dur="10s"/></path>,<path d="M-93.5,707L-111.5,557L-114.5,861z"><animate attributeName="fill" values="#1a1a1a" repeatCount="indefinite" begin="0s" dur="10s"/></path>,<path d="M-111.5,557L-114.5,521L-114.5,861z"><animate attributeName="fill" values="#1a1a1a" repeatCount="indefinite" begin="0s" dur="10s"/></path>,<path d="M-109.5,185L-114.5,-112L-114.5,233z"><animate attributeName="fill" values="#181818" repeatCount="indefinite" begin="0s" dur="10s"/></path></svg>